<?xml version="1.0"?>
<svg xmlns="http://www.w3.org/2000/svg" height="512px" viewBox="0 0 512 512.002" width="512px"><path d="m436.75 150.5c41.496094 0 75.253906-33.757812 75.253906-75.25s-33.757812-75.25-75.253906-75.25c-41.492188 0-75.246094 33.757812-75.246094 75.25 0 15.332031 4.617188 29.605469 12.527344 41.511719l-62.09375 62.089843c-15.722656-11.429687-35.054688-18.183593-55.9375-18.183593s-40.214844 6.753906-55.933594 18.1875l-64.636718-64.636719c4.472656-7.96875 7.035156-17.148438 7.035156-26.917969 0-30.417969-24.746094-55.167969-55.164063-55.167969s-55.164062 24.746094-55.164062 55.167969c0 30.417969 24.746093 55.167969 55.164062 55.167969 9.769531 0 18.949219-2.566406 26.917969-7.039062l64.632812 64.636718c-11.429687 15.722656-18.183593 35.054688-18.183593 55.933594 0 20.882812 6.753906 40.214844 18.183593 55.9375l-62.089843 62.089844c-11.90625-7.90625-26.179688-12.523438-41.511719-12.523438-41.492188 0-75.25 33.757813-75.25 75.25 0 41.492188 33.757812 75.25 75.25 75.25s75.25-33.757812 75.25-75.25c0-15.335937-4.621094-29.605468-12.527344-41.511718l62.09375-62.089844c15.722656 11.429687 35.054688 18.183594 55.9375 18.183594 20.878906 0 40.210938-6.753907 55.933594-18.183594l64.636719 64.632812c-4.472657 7.96875-7.039063 17.148438-7.039063 26.917969 0 30.417969 24.746094 55.164063 55.167969 55.164063 30.417969 0 55.167969-24.746094 55.167969-55.164063s-24.75-55.164063-55.167969-55.164063c-9.773437 0-18.949219 2.5625-26.914063 7.035157l-64.640624-64.636719c11.433593-15.722656 18.1875-35.054688 18.1875-55.9375s-6.753907-40.210938-18.183594-55.933594l62.089844-62.09375c11.90625 7.90625 26.175781 12.527344 41.507812 12.527344zm0 0" fill="#FFFFFF"/></svg>
