<?xml version="1.0"?>
<svg xmlns="http://www.w3.org/2000/svg" height="512px" viewBox="0 0 512 512.00088" width="512px"><path d="m256 227.066406c62.601562 0 113.53125-50.929687 113.53125-113.535156 0-62.601562-50.929688-113.53125-113.53125-113.53125s-113.53125 50.929688-113.53125 113.53125c0 62.605469 50.929688 113.535156 113.53125 113.535156zm32.132812-162.800781c8.28125 0 15 6.722656 15 15 0 8.28125-6.71875 15-15 15s-15-6.71875-15-15c0-8.277344 6.71875-15 15-15zm-64.265624 0c8.28125 0 15 6.722656 15 15 0 8.28125-6.71875 15-15 15s-15-6.71875-15-15c0-8.277344 6.71875-15 15-15zm-26.992188 52.921875c5.679688-6.035156 15.171875-6.320312 21.203125-.644531 2.066406 1.9375 13.425781 20.03125 37.921875 20.03125 24.503906 0 36.03125-18.257813 37.921875-20.03125 6.03125-5.679688 15.523437-5.390625 21.199219.644531 5.183594 5.507812 5.398437 13.894531.804687 19.636719-14.144531 18.636719-36.515625 29.75-59.925781 29.75s-45.78125-11.113281-59.925781-29.75c-4.59375-5.742188-4.378907-14.132813.800781-19.636719zm0 0" fill="#FFFFFF"/><path d="m511.125 234.859375c-.800781-2.265625-2.214844-4.265625-3.933594-5.949219-21.382812-20.972656-54.886718-19.46875-75.117187.761719l-117.269531 117.269531c-2.8125 2.8125-6.625 4.394532-10.605469 4.394532h-79.910157c-8.078124 0-15.027343-6.207032-15.40625-14.277344-.40625-8.613282 6.457032-15.722656 14.980469-15.722656h67.910157c3.976562 0 7.792968-1.582032 10.605468-4.394532l41.097656-41.09375c6.929688-6.933594 2.019532-18.78125-7.78125-18.78125h-142.8125c-25.464843 0-49.40625 9.917969-67.410156 27.925782l-24.988281 24.984374 105.621094 105.625h130.226562c3.980469 0 7.792969-1.582031 10.605469-4.394531l160.667969-160.667969c4.003906-4 5.511719-10.050781 3.519531-15.679687zm0 0" fill="#FFFFFF"/><path d="m73.808594 325.726562c-5.859375-5.855468-15.359375-5.855468-21.214844 0l-48.199219 48.199219c-5.859375 5.859375-5.859375 15.355469 0 21.214844l112.464844 112.464844c5.859375 5.859375 15.355469 5.863281 21.214844 0l48.199219-48.199219c5.859374-5.855469 5.859374-15.355469 0-21.210938zm0 0" fill="#FFFFFF"/></svg>
