<?xml version="1.0"?>
<svg xmlns="http://www.w3.org/2000/svg" height="512px" viewBox="0 -16 512 512" width="512px"><path d="m211.300781 333.449219c-27.59375-15.964844-44.734375-45.640625-44.734375-77.449219 0-8.285156-6.714844-15-15-15h-136.566406c-8.285156 0-15 6.714844-15 15 0 45.730469 12.210938 90.621094 35.308594 129.808594 22.414062 38.027344 54.457031 69.8125 92.660156 91.917968 2.304688 1.332032 4.898438 2.015626 7.515625 2.015626 1.296875 0 2.601563-.167969 3.875-.507813 3.84375-1.03125 7.125-3.542969 9.113281-6.992187l68.304688-118.308594c4.140625-7.171875 1.6875-16.339844-5.476563-20.484375zm0 0" fill="#FFFFFF"/><path d="m190.796875 173.066406c1.992187 3.449219 5.269531 5.964844 9.113281 6.992188 3.847656 1.03125 7.941406.488281 11.390625-1.507813 13.554688-7.839843 29.011719-11.984375 44.699219-11.984375s31.144531 4.144532 44.699219 11.984375c2.304687 1.332031 4.898437 2.015625 7.511719 2.015625 1.296874 0 2.601562-.167968 3.875-.507812 3.847656-1.027344 7.125-3.542969 9.113281-6.992188l68.308593-118.308594c4.140626-7.167968 1.6875-16.335937-5.480468-20.484374-38.761719-22.421876-83.035156-34.273438-128.027344-34.273438-45.003906 0-89.273438 11.851562-128.027344 34.277344-7.167968 4.144531-9.617187 13.3125-5.480468 20.480468zm0 0" fill="#FFFFFF"/><path d="m497 241h-136.566406c-8.285156 0-15 6.714844-15 15 0 31.804688-17.140625 61.480469-44.734375 77.449219-7.164063 4.144531-9.617188 13.3125-5.476563 20.480469l68.304688 118.308593c1.992187 3.449219 5.269531 5.964844 9.113281 6.992188 1.277344.339843 2.578125.507812 3.875.507812 2.617187 0 5.210937-.683593 7.515625-2.015625 38.203125-22.105468 70.242188-53.886718 92.660156-91.914062 23.097656-39.191406 35.308594-84.078125 35.308594-129.808594 0-8.285156-6.714844-15-15-15zm0 0" fill="#FFFFFF"/><path d="m311.167969 256c0-30.417969-24.75-55.164062-55.167969-55.164062s-55.164062 24.746093-55.164062 55.164062 24.746093 55.164062 55.164062 55.164062 55.167969-24.746093 55.167969-55.164062zm0 0" fill="#FFFFFF"/></svg>
