<?xml version="1.0" encoding="utf-8"?>
<!-- Generator: Adobe Illustrator 22.0.1, SVG Export Plug-In . SVG Version: 6.00 Build 0)  -->
<svg version="1.1" id="Layer_1" xmlns="http://www.w3.org/2000/svg" xmlns:xlink="http://www.w3.org/1999/xlink" x="0px" y="0px"
	 width="415.1px" height="362.5px" viewBox="0 0 415.1 362.5" style="enable-background:new 0 0 415.1 362.5;" xml:space="preserve"
	>
<style type="text/css">
	.st0{clip-path:url(#SVGID_5_);}
	.st1{clip-path:url(#SVGID_6_);fill:url(#XMLID_2_);}
	.st2{fill:#252F5A;}
	.st3{fill:#FFFFFF;}
	.st4{fill:#33FF9D;}
	.st5{fill:#F5F5F7;}
	.st6{fill:#EBEBED;}
	.st7{fill:#3021BF;}
	.st8{fill:#3932D6;}
	.st9{fill:#462BE2;}
	.st10{fill:#FF8A33;}
	.st11{fill:#FFA76C;}
	.st12{fill:#D86212;}
	.st13{fill:#23D87D;}
	.st14{fill:#DDDDDD;}
	.st15{fill:#5E4EF9;}
	.st16{fill:#EF9D7F;}
	.st17{fill:#FFBEA4;}
	.st18{fill:#17203A;}
	.st19{fill:#DD8B66;}
	.st20{opacity:0.2;fill:#FFFFFF;}
	.st21{fill:#37477C;}
	.st22{fill:#16B260;}
</style>
<g id="man">
	<g id="XMLID_23_">
		<g>
			<g>
				<g>
					<defs>
						<polygon id="SVGID_1_" points="35.6,6.6 36.5,6.6 35.6,7.5 						"/>
					</defs>
					<clipPath id="SVGID_2_">
						<use xlink:href="#SVGID_1_"  style="overflow:visible;"/>
					</clipPath>
				</g>
				<g>
					<defs>
						<polygon id="SVGID_3_" points="35.6,6.6 36.5,6.6 35.6,7.5 						"/>
					</defs>
					<defs>
						<polygon id="SVGID_4_" points="33.9,4.9 33,4.9 33.9,4 						"/>
					</defs>
					<clipPath id="SVGID_5_">
						<use xlink:href="#SVGID_3_"  style="overflow:visible;"/>
					</clipPath>
					<clipPath id="SVGID_6_" class="st0">
						<use xlink:href="#SVGID_4_"  style="overflow:visible;"/>
					</clipPath>
					
						<linearGradient id="XMLID_2_" gradientUnits="userSpaceOnUse" x1="193.7952" y1="-362.9924" x2="300.7032" y2="-362.9924" gradientTransform="matrix(1 0 0 -1 0 -52)">
						<stop  offset="1.254480e-02" style="stop-color:#FFFFFF"/>
						<stop  offset="1" style="stop-color:#000000"/>
					</linearGradient>
					<polygon id="XMLID_24_" class="st1" points="300.7,302.6 205.9,302.6 193.8,319.4 300.7,319.4 					"/>
				</g>
			</g>
		</g>
	</g>
</g>
<g>
	<g>
		<g>
			<g>
				<path class="st2" d="M203.8,75.1c0,0-7.5,22.9-25.4,16.7c-22-7.6,5.1-41.7-4.8-72.6c19.7,4.8,62.4,27.4,57.6,47.1
					C226.5,86,203.8,75.1,203.8,75.1z"/>
				<path class="st3" d="M209.6,126.9l-0.3-0.1c0.1-0.2,5-16.1-5.6-51.7c-10.6-35.6-24.1-50.1-24.2-50.2l0.2-0.2
					c0.1,0.1,13.7,14.7,24.3,50.4C214.6,110.8,209.6,126.8,209.6,126.9z"/>
				<path class="st3" d="M180.4,76.9l-0.3-0.1c3.7-9.1,15-13.9,20.4-12.3l-0.1,0.3C195.2,63.2,184,68.2,180.4,76.9z"/>
				<path class="st3" d="M197.3,56.1l-0.3-0.2c0.1-0.1,6.4-9.1,20.1-7.6l0,0.3C203.6,47.2,197.4,56,197.3,56.1z"/>
				<path class="st3" d="M180.9,47.5l-0.3-0.1c0-0.1,2.2-6.5,9.6-6.5c0,0,0.1,0,0.1,0l0,0.3c0,0-0.1,0-0.1,0
					C183,41.2,180.9,47.5,180.9,47.5z"/>
				<path class="st3" d="M185.2,32.1l-0.3-0.2c0.1-0.1,1.5-2.5,6.3-2.5l0,0.3C186.5,29.8,185.2,32.1,185.2,32.1z"/>
				<path class="st3" d="M200.2,63.7l-0.2-0.2c0.1-0.1,8-8.6,22.1-6.2l-0.1,0.3C208.1,55.2,200.3,63.6,200.2,63.7z"/>
				<path class="st3" d="M180.1,60.9l-0.3-0.2c6-9.2,15.9-8.3,16-8.3l0,0.3C195.7,52.8,186,51.9,180.1,60.9z"/>
				<path class="st3" d="M192.2,44.7l-0.3-0.2c0-0.1,3.3-6,11.7-6c0.3,0,0.6,0,0.9,0l0,0.3C195.7,38.4,192.3,44.6,192.2,44.7z"/>
				<path class="st3" d="M179.8,36.5l-0.3-0.2c1.8-3.5,6.6-2.7,6.7-2.7l-0.1,0.3C186.1,34,181.5,33.2,179.8,36.5z"/>
				<path class="st3" d="M182,27.6l-0.3-0.1c0-0.1,0.6-1.3,2.9-1.4l0,0.3C182.5,26.5,182,27.5,182,27.6z"/>
			</g>
			<g>
				<path class="st2" d="M84.9,256.8c0,0,3.3,13-7,15.4c-12.7,3-10-21.3-23.9-32.9c10.8-3.6,37.7-5.6,41.3,5.2
					C98.9,255.2,84.9,256.8,84.9,256.8z"/>
				<path class="st3" d="M102.8,279.7c0-0.1-2.4-9.1-18-22.8c-15.6-13.7-26.2-16.5-26.4-16.6l0.1-0.3c0.1,0,10.9,2.9,26.5,16.6
					c15.6,13.8,18.1,22.8,18.1,22.9L102.8,279.7z"/>
				<path class="st3" d="M74.1,264.7c-0.9-5.4,3-11.1,6-12l0.1,0.3c-2.9,0.8-6.7,6.4-5.8,11.6L74.1,264.7z"/>
				<path class="st3" d="M76.2,249.8l-0.3,0c0-0.1,0.3-6.2,7.3-9.6l0.1,0.3C76.6,243.7,76.2,249.7,76.2,249.8z"/>
				<path class="st3" d="M65.6,250.7c0,0-0.9-3.8,2.7-6.1l0.2,0.3c-3.4,2.1-2.6,5.6-2.5,5.7L65.6,250.7z"/>
				<path class="st3" d="M63,242.1c0-0.1-0.1-1.7,2.3-3.1l0.2,0.3c-2.1,1.3-2.1,2.8-2.1,2.8L63,242.1z"/>
				<path class="st3" d="M79.8,252.5l-0.3-0.1c0-0.1,1.2-6.5,8.7-9.6l0.1,0.3C81.1,246.2,79.9,252.5,79.8,252.5z"/>
				<path class="st3" d="M69.5,257.2l-0.3,0c0.1-6.2,5.1-8.7,5.1-8.7l0.1,0.3C74.4,248.8,69.6,251.2,69.5,257.2z"/>
				<path class="st3" d="M70.1,245.9c0,0-0.2-4.2,4.2-6.7l0.2,0.3c-4.3,2.4-4.1,6.3-4.1,6.3L70.1,245.9z"/>
				<path class="st3" d="M61.8,245.7c-0.2-2.2,2.4-3.3,2.4-3.3l0.1,0.3c0,0-2.4,1-2.2,3L61.8,245.7z"/>
				<path class="st3" d="M60.2,240.9c0,0-0.1-0.8,1-1.6l0.2,0.3c-0.9,0.6-0.9,1.3-0.9,1.3L60.2,240.9z"/>
			</g>
			<g>
				<path class="st4" d="M305.1,258.1c0,0-4.1,18.5,10.4,21.5c18,3.7,13.4-30.3,32.5-47.2c-15.3-4.7-53.2-6.6-57.9,8.6
					S305.1,258.1,305.1,258.1z"/>
				<path class="st2" d="M280.6,290.9l-0.3-0.1c0-0.1,3.1-13,24.7-32.9c21.5-19.9,36.6-24.3,36.7-24.3l0.1,0.3
					c-0.1,0-15.1,4.4-36.6,24.2C283.7,278.1,280.6,290.8,280.6,290.9z"/>
				<path class="st2" d="M320.5,268.8l-0.3,0c1.1-7.4-4.5-15.2-8.6-16.2l0.1-0.3C315.9,253.3,321.6,261.2,320.5,268.8z"/>
				<path class="st2" d="M317.1,247.9c0-0.1-0.6-8.5-10.4-13l0.1-0.3c9.9,4.6,10.6,13.2,10.6,13.3L317.1,247.9z"/>
				<path class="st2" d="M332,248.8l-0.3-0.1c0-0.1,1.1-5.2-3.8-8l0.2-0.3C333.1,243.4,332,248.7,332,248.8z"/>
				<path class="st2" d="M335.3,236.6l-0.3,0c0,0,0-2.1-3.1-3.9l0.2-0.3C335.3,234.3,335.3,236.5,335.3,236.6z"/>
				<path class="st2" d="M312.1,251.9c0-0.1-1.9-8.9-12.3-12.9l0.1-0.3c10.5,4.1,12.5,13,12.5,13.1L312.1,251.9z"/>
				<path class="st2" d="M326.8,258.1c-0.3-8.5-7.2-11.7-7.3-11.8l0.1-0.3c0.1,0,7.1,3.4,7.5,12.1L326.8,258.1z"/>
				<path class="st2" d="M325.5,242.2l-0.3,0c0-0.1,0.2-5.6-6-8.9l0.2-0.3C325.6,236.4,325.5,242.2,325.5,242.2z"/>
				<path class="st2" d="M337.2,241.7l-0.3,0c0.1-2.9-3.2-4.2-3.3-4.2l0.1-0.3C333.8,237.2,337.3,238.6,337.2,241.7z"/>
				<path class="st2" d="M339.3,234.8l-0.3,0l0.2,0l-0.2,0c0,0,0.1-0.9-1.3-1.8l0.2-0.3C339.4,233.7,339.3,234.8,339.3,234.8z"/>
			</g>
		</g>
		<g>
			<g>
				<path class="st5" d="M77.4,294.7c5.1,0,5.1-40.3,0-40.3h151c5.1,0,5.1,40.3,0,40.3H77.4z"/>
				<g>
					<path class="st6" d="M231.4,261.3H80.1c-0.4,0-0.7-0.3-0.7-0.7s0.3-0.7,0.7-0.7h151.3c0.4,0,0.7,0.3,0.7,0.7
						S231.7,261.3,231.4,261.3z"/>
					<path class="st6" d="M231.4,269.2H80.1c-0.4,0-0.7-0.3-0.7-0.7c0-0.4,0.3-0.7,0.7-0.7h151.3c0.4,0,0.7,0.3,0.7,0.7
						C232,268.9,231.7,269.2,231.4,269.2z"/>
					<path class="st6" d="M231.4,281.1H80.1c-0.4,0-0.7-0.3-0.7-0.7c0-0.4,0.3-0.7,0.7-0.7h151.3c0.4,0,0.7,0.3,0.7,0.7
						C232,280.8,231.7,281.1,231.4,281.1z"/>
					<path class="st6" d="M231.4,289.1H80.1c-0.4,0-0.7-0.3-0.7-0.7c0-0.4,0.3-0.7,0.7-0.7h151.3c0.4,0,0.7,0.3,0.7,0.7
						C232,288.8,231.7,289.1,231.4,289.1z"/>
					<path class="st6" d="M231.4,265.2H80.1c-0.4,0-0.7-0.3-0.7-0.7c0-0.4,0.3-0.7,0.7-0.7h151.3c0.4,0,0.7,0.3,0.7,0.7
						C232,264.9,231.7,265.2,231.4,265.2z"/>
					<path class="st6" d="M231.4,273.2H80.1c-0.4,0-0.7-0.3-0.7-0.7c0-0.4,0.3-0.7,0.7-0.7h151.3c0.4,0,0.7,0.3,0.7,0.7
						C232,272.9,231.7,273.2,231.4,273.2z"/>
					<path class="st6" d="M231.4,277.2H80.1c-0.4,0-0.7-0.3-0.7-0.7c0-0.4,0.3-0.7,0.7-0.7h151.3c0.4,0,0.7,0.3,0.7,0.7
						C232,276.9,231.7,277.2,231.4,277.2z"/>
					<path class="st6" d="M231.4,285.1H80.1c-0.4,0-0.7-0.3-0.7-0.7c0-0.4,0.3-0.7,0.7-0.7h151.3c0.4,0,0.7,0.3,0.7,0.7
						C232,284.8,231.7,285.1,231.4,285.1z"/>
				</g>
				<g>
					<path class="st7" d="M228.4,294.7c5.1,0,5.1-40.3,0-40.3h73.7c5.1,0,5.1,40.3,0,40.3H228.4z"/>
					<path class="st7" d="M302.1,251.7h-73.7c-1.4,0-2.6,1.2-2.6,2.6c0,1.2,0.7,2.1,1.8,2.5c2.7,4.3,2.7,31.1,0,35.4
						c-1,0.4-1.8,1.3-1.8,2.5c0,1.5,1.2,2.6,2.6,2.6h73.7c1.6,0,6.4,0,6.4-22.8C308.6,251.7,303.7,251.7,302.1,251.7z M301.4,292.1
						h-68.2c1-3.3,1.7-8.7,1.7-17.6c0-8.8-0.7-14.2-1.7-17.6h68.2C304,261.7,304,287.4,301.4,292.1z"/>
				</g>
				<g>
					<path class="st8" d="M287.7,292.1c-0.4,2.1-0.8,3.9-1.3,5.2H267c0.5-1.3,1-3.1,1.3-5.2c1.6-9.5,1.6-25.6,0-35.1
						c-0.4-2.1-0.8-3.9-1.3-5.2h19.4c0.5,1.3,1,3.1,1.3,5.2C289.3,266.5,289.3,282.5,287.7,292.1z"/>
				</g>
				<path class="st9" d="M228.4,297.3h-151c-1.4,0-2.6-1.2-2.6-2.6s1.2-2.6,2.6-2.6h150.2c2.6-4.7,2.6-30.4,0-35.1H77.4
					c-1.4,0-2.6-1.2-2.6-2.6c0-1.4,1.2-2.6,2.6-2.6h151c1.6,0,6.4,0,6.4,22.8C234.8,297.3,230,297.3,228.4,297.3z M228.4,257
					L228.4,257L228.4,257z"/>
				<g>
					<path class="st6" d="M209.9,265v17.7c0,0.7,0.7,1.1,1.3,0.9l4.2-1.4l4.2,1.4c0.6,0.2,1.3-0.3,1.3-0.9V265
						c0-0.5-0.4-0.9-0.9-0.9h-9.3C210.3,264.2,209.9,264.6,209.9,265z"/>
					<path class="st6" d="M210.9,284.3c-0.3,0-0.7-0.1-0.9-0.3c-0.4-0.3-0.7-0.8-0.7-1.3V265c0-0.8,0.7-1.5,1.5-1.5h9.3
						c0.8,0,1.5,0.7,1.5,1.5v17.7c0,0.5-0.3,1-0.7,1.3c-0.4,0.3-1,0.4-1.5,0.2l-4-1.4l-4,1.4C211.3,284.3,211.1,284.3,210.9,284.3z
						 M215.4,281.5c0.1,0,0.1,0,0.2,0l4.2,1.4c0.1,0,0.2,0,0.3,0c0,0,0.1-0.1,0.1-0.3V265c0-0.1-0.1-0.2-0.2-0.2h-9.3
						c-0.1,0-0.2,0.1-0.2,0.2v17.7c0,0.1,0.1,0.2,0.1,0.3c0,0,0.2,0.1,0.3,0l4.2-1.4C215.3,281.6,215.4,281.5,215.4,281.5z"/>
				</g>
				<g>
					<path class="st4" d="M209.3,264.6v17.7c0,0.7,0.7,1.1,1.3,0.9l4.2-1.4l4.2,1.4c0.6,0.2,1.3-0.3,1.3-0.9v-17.7
						c0-0.5-0.4-0.9-0.9-0.9h-9.3C209.7,263.7,209.3,264.1,209.3,264.6z"/>
					<path class="st4" d="M219.3,283.8c-0.2,0-0.4,0-0.5-0.1l-4-1.4l-4,1.4c-0.5,0.2-1,0.1-1.5-0.2c-0.4-0.3-0.7-0.8-0.7-1.3v-17.7
						c0-0.8,0.7-1.5,1.5-1.5h9.3c0.8,0,1.5,0.7,1.5,1.5v17.7c0,0.5-0.3,1-0.7,1.3C220,283.7,219.7,283.8,219.3,283.8z M210.2,264.4
						c-0.1,0-0.2,0.1-0.2,0.2v17.7c0,0.1,0.1,0.2,0.1,0.3c0,0,0.2,0.1,0.3,0l4.2-1.4c0.1,0,0.3,0,0.4,0l4.2,1.4c0.1,0,0.2,0,0.3,0
						c0,0,0.1-0.1,0.1-0.3v-17.7c0-0.1-0.1-0.2-0.2-0.2H210.2z"/>
				</g>
			</g>
			<g>
				<path class="st6" d="M309.5,249.1c-5.1,0-5.1-40.3,0-40.3h-93.9c-5.1,0-5.1,40.3,0,40.3H309.5z"/>
				<g>
					<path class="st5" d="M212.6,215.7h94.2c0.4,0,0.7-0.3,0.7-0.7c0-0.4-0.3-0.7-0.7-0.7h-94.2c-0.4,0-0.7,0.3-0.7,0.7
						C212,215.4,212.3,215.7,212.6,215.7z"/>
					<path class="st5" d="M212.6,223.6h94.2c0.4,0,0.7-0.3,0.7-0.7c0-0.4-0.3-0.7-0.7-0.7h-94.2c-0.4,0-0.7,0.3-0.7,0.7
						C212,223.3,212.3,223.6,212.6,223.6z"/>
					<path class="st5" d="M212.6,235.6h94.2c0.4,0,0.7-0.3,0.7-0.7c0-0.4-0.3-0.7-0.7-0.7h-94.2c-0.4,0-0.7,0.3-0.7,0.7
						C212,235.3,212.3,235.6,212.6,235.6z"/>
					<path class="st5" d="M212.6,243.5h94.2c0.4,0,0.7-0.3,0.7-0.7c0-0.4-0.3-0.7-0.7-0.7h-94.2c-0.4,0-0.7,0.3-0.7,0.7
						C212,243.2,212.3,243.5,212.6,243.5z"/>
					<path class="st5" d="M212.6,219.7h94.2c0.4,0,0.7-0.3,0.7-0.7c0-0.4-0.3-0.7-0.7-0.7h-94.2c-0.4,0-0.7,0.3-0.7,0.7
						C212,219.4,212.3,219.7,212.6,219.7z"/>
					<path class="st5" d="M212.6,227.6h94.2c0.4,0,0.7-0.3,0.7-0.7c0-0.4-0.3-0.7-0.7-0.7h-94.2c-0.4,0-0.7,0.3-0.7,0.7
						C212,227.3,212.3,227.6,212.6,227.6z"/>
					<path class="st5" d="M212.6,231.6h94.2c0.4,0,0.7-0.3,0.7-0.7c0-0.4-0.3-0.7-0.7-0.7h-94.2c-0.4,0-0.7,0.3-0.7,0.7
						C212,231.3,212.3,231.6,212.6,231.6z"/>
					<path class="st5" d="M212.6,239.5h94.2c0.4,0,0.7-0.3,0.7-0.7c0-0.4-0.3-0.7-0.7-0.7h-94.2c-0.4,0-0.7,0.3-0.7,0.7
						C212,239.2,212.3,239.5,212.6,239.5z"/>
				</g>
				<g>
					<g>
						<path class="st10" d="M215.6,249.1c-5.1,0-5.1-40.3,0-40.3h-104c-5.1,0-5.1,40.3,0,40.3H215.6z"/>
						<path class="st10" d="M111.6,206.2h104c1.4,0,2.6,1.2,2.6,2.6c0,1.2-0.7,2.1-1.8,2.5c-2.7,4.3-2.7,31.1,0,35.4
							c1,0.4,1.8,1.3,1.8,2.5c0,1.5-1.2,2.6-2.6,2.6h-104c-1.6,0-6.4,0-6.4-22.8S110,206.2,111.6,206.2z M112.4,246.5h98.5
							c-1-3.3-1.7-8.7-1.7-17.6c0-8.8,0.7-14.2,1.7-17.6h-98.5C109.7,216.1,109.7,241.8,112.4,246.5z"/>
					</g>
				</g>
				<g>
					<path class="st11" d="M126.1,246.5c0.4,2.1,0.8,3.9,1.3,5.2h10c-0.5-1.3-1-3.1-1.3-5.2c-1.6-9.5-1.6-25.6,0-35.1
						c0.4-2.1,0.8-3.9,1.3-5.2h-10c-0.5,1.3-1,3.1-1.3,5.2C124.4,220.9,124.4,237,126.1,246.5z"/>
				</g>
				<g>
					<path class="st11" d="M185.2,246.5c0.4,2.1,0.8,3.9,1.3,5.2h10c-0.5-1.3-1-3.1-1.3-5.2c-1.6-9.5-1.6-25.6,0-35.1
						c0.4-2.1,0.8-3.9,1.3-5.2h-10c-0.5,1.3-1,3.1-1.3,5.2C183.6,220.9,183.6,237,185.2,246.5z"/>
				</g>
				<g>
					<path class="st11" d="M140.2,246.5c0.4,2.1,0.8,3.9,1.3,5.2h6.3c-0.5-1.3-1-3.1-1.3-5.2c-1.6-9.5-1.6-25.6,0-35.1
						c0.4-2.1,0.8-3.9,1.3-5.2h-6.3c-0.5,1.3-1,3.1-1.3,5.2C138.6,220.9,138.6,237,140.2,246.5z"/>
				</g>
				<g>
					<path class="st11" d="M149,246.5c0.4,2.1,0.8,3.9,1.3,5.2h6.3c-0.5-1.3-1-3.1-1.3-5.2c-1.6-9.5-1.6-25.6,0-35.1
						c0.4-2.1,0.8-3.9,1.3-5.2h-6.3c-0.5,1.3-1,3.1-1.3,5.2C147.4,220.9,147.4,237,149,246.5z"/>
				</g>
				<path class="st12" d="M215.6,251.7h93.9c1.4,0,2.6-1.2,2.6-2.6c0-1.4-1.2-2.6-2.6-2.6h-93.2c-2.6-4.7-2.6-30.4,0-35.1h93.2
					c1.4,0,2.6-1.2,2.6-2.6c0-1.4-1.2-2.6-2.6-2.6h-93.9c-1.6,0-6.4,0-6.4,22.8C209.2,251.7,214,251.7,215.6,251.7z M215.6,211.4
					L215.6,211.4L215.6,211.4z"/>
				<g>
					<path class="st6" d="M234.1,219.5v17.7c0,0.7-0.7,1.1-1.3,0.9l-4.2-1.4l-4.2,1.4c-0.6,0.2-1.3-0.3-1.3-0.9v-17.7
						c0-0.5,0.4-0.9,0.9-0.9h9.3C233.7,218.6,234.1,219,234.1,219.5z"/>
					<path class="st6" d="M233.1,238.7c0.3,0,0.7-0.1,0.9-0.3c0.4-0.3,0.7-0.8,0.7-1.3v-17.7c0-0.8-0.7-1.5-1.5-1.5h-9.3
						c-0.8,0-1.5,0.7-1.5,1.5v17.7c0,0.5,0.3,1,0.7,1.3c0.4,0.3,1,0.4,1.5,0.2l4-1.4l4,1.4C232.7,238.7,232.9,238.7,233.1,238.7z
						 M228.6,236c-0.1,0-0.1,0-0.2,0l-4.2,1.4c-0.1,0-0.2,0-0.3,0c0,0-0.1-0.1-0.1-0.3v-17.7c0-0.1,0.1-0.2,0.2-0.2h9.3
						c0.1,0,0.2,0.1,0.2,0.2v17.7c0,0.1-0.1,0.2-0.1,0.3c0,0-0.2,0.1-0.3,0l-4.2-1.4C228.7,236,228.6,236,228.6,236z"/>
				</g>
				<g>
					<path class="st7" d="M234.7,219v17.7c0,0.7-0.7,1.1-1.3,0.9l-4.2-1.4l-4.2,1.4c-0.6,0.2-1.3-0.3-1.3-0.9V219
						c0-0.5,0.4-0.9,0.9-0.9h9.3C234.3,218.1,234.7,218.5,234.7,219z"/>
					<path class="st7" d="M224.7,238.3c0.2,0,0.4,0,0.5-0.1l4-1.4l4,1.4c0.5,0.2,1,0.1,1.5-0.2c0.4-0.3,0.7-0.8,0.7-1.3V219
						c0-0.8-0.7-1.5-1.5-1.5h-9.3c-0.8,0-1.5,0.7-1.5,1.5v17.7c0,0.5,0.3,1,0.7,1.3C224,238.2,224.3,238.3,224.7,238.3z
						 M233.8,218.8c0.1,0,0.2,0.1,0.2,0.2v17.7c0,0.1-0.1,0.2-0.1,0.3c0,0-0.2,0.1-0.3,0l-4.2-1.4c-0.1,0-0.3,0-0.4,0l-4.2,1.4
						c-0.1,0-0.2,0-0.3,0c0,0-0.1-0.1-0.1-0.3V219c0-0.1,0.1-0.2,0.2-0.2H233.8z"/>
				</g>
			</g>
			<g>
				<g>
					<path class="st13" d="M123.6,179.6h172.7c9.3,0,9.3,24.6,0,24.6H123.6"/>
					<path class="st13" d="M296.3,206.3H123.6c-1.1,0-2.1-0.9-2.1-2.1c0-1.1,0.9-2.1,2.1-2.1h172.7c3.2,0,4.9-5.3,4.9-10.2
						s-1.7-10.2-4.9-10.2H123.6c-1.1,0-2.1-0.9-2.1-2.1c0-1.1,0.9-2.1,2.1-2.1h172.7c6.2,0,9.1,7.4,9.1,14.4
						S302.5,206.3,296.3,206.3z"/>
				</g>
				<path class="st5" d="M72.2,204.2c9.3,0,9.3-24.6,0-24.6h119.5c9.3,0,9.3,24.6,0,24.6H72.2z"/>
				<g>
					<path class="st6" d="M194.1,187.7H78.2c-0.3,0-0.5-0.2-0.5-0.5c0-0.3,0.2-0.5,0.5-0.5h115.8c0.3,0,0.5,0.2,0.5,0.5
						C194.6,187.5,194.4,187.7,194.1,187.7z"/>
					<path class="st6" d="M194.1,197.2H78.2c-0.3,0-0.5-0.2-0.5-0.5c0-0.3,0.2-0.5,0.5-0.5h115.8c0.3,0,0.5,0.2,0.5,0.5
						C194.6,196.9,194.4,197.2,194.1,197.2z"/>
					<path class="st6" d="M194.1,184.6H77.5c-0.3,0-0.5-0.2-0.5-0.5c0-0.3,0.2-0.5,0.5-0.5h116.6c0.3,0,0.5,0.2,0.5,0.5
						C194.6,184.4,194.4,184.6,194.1,184.6z"/>
					<path class="st6" d="M194.1,190.9H79c-0.3,0-0.5-0.2-0.5-0.5c0-0.3,0.2-0.5,0.5-0.5h115.1c0.3,0,0.5,0.2,0.5,0.5
						C194.6,190.6,194.4,190.9,194.1,190.9z"/>
					<path class="st6" d="M194.1,194H79c-0.3,0-0.5-0.2-0.5-0.5s0.2-0.5,0.5-0.5h115.1c0.3,0,0.5,0.2,0.5,0.5S194.4,194,194.1,194z"
						/>
					<path class="st6" d="M194.1,200.3H77.5c-0.3,0-0.5-0.2-0.5-0.5c0-0.3,0.2-0.5,0.5-0.5h116.6c0.3,0,0.5,0.2,0.5,0.5
						C194.6,200.1,194.4,200.3,194.1,200.3z"/>
				</g>
				<path class="st4" d="M191.8,206.3H72.2c-1.1,0-2.1-0.9-2.1-2.1c0-1.1,0.9-2.1,2.1-2.1h119.5c3.2,0,4.9-5.3,4.9-10.2
					s-1.7-10.2-4.9-10.2H72.2c-1.1,0-2.1-0.9-2.1-2.1c0-1.1,0.9-2.1,2.1-2.1h119.5c6.2,0,9.1,7.4,9.1,14.4S198,206.3,191.8,206.3z"
					/>
				<g>
					<g>
						<path class="st6" d="M178.1,185.2v8.5c0,0.5,0.5,0.9,1,0.7l3.3-1.1l3.3,1.1c0.5,0.2,1-0.2,1-0.7v-8.5c0-0.4-0.3-0.7-0.7-0.7
							h-7.4C178.4,184.5,178.1,184.8,178.1,185.2z"/>
						<path class="st6" d="M178.9,194.9c-0.3,0-0.5-0.1-0.8-0.2c-0.3-0.2-0.5-0.6-0.5-1v-8.5c0-0.7,0.5-1.2,1.2-1.2h7.4
							c0.7,0,1.2,0.5,1.2,1.2v8.5c0,0.4-0.2,0.8-0.5,1c-0.3,0.2-0.8,0.3-1.2,0.2l-3.2-1.1l-3.2,1.1
							C179.2,194.9,179.1,194.9,178.9,194.9z M178.8,185c-0.1,0-0.2,0.1-0.2,0.2v8.5c0,0.1,0.1,0.2,0.1,0.2c0,0,0.1,0.1,0.2,0
							l3.3-1.1c0.1,0,0.2,0,0.3,0l3.3,1.1c0.1,0,0.2,0,0.2,0c0,0,0.1-0.1,0.1-0.2v-8.5c0-0.1-0.1-0.2-0.2-0.2H178.8z"/>
					</g>
					<g>
						<path class="st10" d="M177.7,184.8v8.5c0,0.5,0.5,0.9,1,0.7l3.3-1.1l3.3,1.1c0.5,0.2,1-0.2,1-0.7v-8.5c0-0.4-0.3-0.7-0.7-0.7
							h-7.4C178,184.1,177.7,184.4,177.7,184.8z"/>
						<path class="st10" d="M178.4,194.5c-0.3,0-0.5-0.1-0.8-0.2c-0.3-0.2-0.5-0.6-0.5-1v-8.5c0-0.7,0.5-1.2,1.2-1.2h7.4
							c0.7,0,1.2,0.5,1.2,1.2v8.5c0,0.4-0.2,0.8-0.5,1c-0.3,0.2-0.8,0.3-1.2,0.2l-3.2-1.1l-3.2,1.1
							C178.7,194.5,178.6,194.5,178.4,194.5z M182,192.3c0.1,0,0.1,0,0.2,0l3.3,1.1c0.1,0,0.2,0,0.2,0c0,0,0.1-0.1,0.1-0.2v-8.5
							c0-0.1-0.1-0.2-0.2-0.2h-7.4c-0.1,0-0.2,0.1-0.2,0.2v8.5c0,0.1,0.1,0.2,0.1,0.2c0,0,0.1,0.1,0.2,0l3.3-1.1
							C181.9,192.4,181.9,192.3,182,192.3z"/>
					</g>
				</g>
				<path class="st4" d="M293,195.1h-80.6c-1.8,0-3.2-1.4-3.2-3.2l0,0c0-1.8,1.4-3.2,3.2-3.2H293c1.8,0,3.2,1.4,3.2,3.2l0,0
					C296.2,193.7,294.8,195.1,293,195.1z"/>
			</g>
			<g>
				<g>
					<path class="st9" d="M108.2,174.9H155c6.4-3.5,11.2-11.4,11.2-21.7l22.2-78.9h133.7l-22.2,78.9c0,10.3-4.8,18.2-11.2,21.7
						h-76.1"/>
					<path class="st9" d="M288.7,177.6h-76.1c-1.4,0-2.6-1.2-2.6-2.6c0-1.4,1.2-2.6,2.6-2.6H288c5.7-3.4,9.3-10.7,9.3-19.1
						c0-0.2,0-0.5,0.1-0.7L318.7,77H190.4l-21.6,76.6c-0.1,10.4-4.9,19.4-12.6,23.6c-0.4,0.2-0.8,0.3-1.2,0.3h-46.8
						c-1.4,0-2.6-1.2-2.6-2.6c0-1.4,1.2-2.6,2.6-2.6h46.1c5.7-3.4,9.3-10.7,9.3-19.1c0-0.2,0-0.5,0.1-0.7l22.2-78.9
						c0.3-1.1,1.3-1.9,2.5-1.9h133.7c0.8,0,1.6,0.4,2.1,1c0.5,0.7,0.7,1.5,0.4,2.3l-22.1,78.5c-0.1,10.4-4.9,19.4-12.6,23.6
						C289.6,177.4,289.1,177.6,288.7,177.6z"/>
				</g>
				<path class="st5" d="M165.9,164.3c-3.5-3.9,20.7-88.3,27.8-88.3h126.7L296,164L165.9,164.3z"/>
				<g>
					<path class="st6" d="M176.4,149.8C176.3,149.8,176.3,149.8,176.4,149.8c-0.4-0.1-0.7-0.4-0.6-0.7c2.8-20.3,9.5-42.3,20.5-67.3
						c0.1-0.3,0.5-0.5,0.9-0.3c0.3,0.1,0.5,0.5,0.3,0.9c-11,24.9-17.7,46.8-20.4,66.9C177,149.6,176.7,149.8,176.4,149.8z"/>
					<path class="st6" d="M180.4,149.8C180.4,149.8,180.3,149.8,180.4,149.8c-0.4-0.1-0.7-0.4-0.6-0.7c2.8-20.4,9.5-42.4,20.5-67.3
						c0.1-0.3,0.5-0.5,0.9-0.3c0.3,0.1,0.5,0.5,0.3,0.9c-11,24.8-17.7,46.7-20.4,66.9C181,149.6,180.7,149.8,180.4,149.8z"/>
					<path class="st6" d="M184.4,149.8C184.4,149.8,184.4,149.8,184.4,149.8c-0.4-0.1-0.7-0.4-0.6-0.7c2.8-20.5,9.5-42.5,20.5-67.3
						c0.1-0.3,0.5-0.5,0.9-0.3c0.3,0.1,0.5,0.5,0.3,0.9c-11,24.7-17.7,46.6-20.4,66.9C185,149.6,184.8,149.8,184.4,149.8z"/>
					<path class="st6" d="M188.5,149.8C188.5,149.8,188.4,149.8,188.5,149.8c-0.4-0.1-0.7-0.4-0.6-0.7c2.7-20.3,9.6-42.9,20.5-67.3
						c0.1-0.3,0.5-0.5,0.9-0.3c0.3,0.1,0.5,0.5,0.3,0.9c-10.8,24.2-17.7,46.7-20.4,66.9C189.1,149.6,188.8,149.8,188.5,149.8z"/>
					<path class="st6" d="M192.5,149.8C192.5,149.8,192.5,149.8,192.5,149.8c-0.4-0.1-0.7-0.4-0.7-0.7c2.7-20.4,9.6-43.1,20.5-67.3
						c0.1-0.3,0.5-0.5,0.9-0.3c0.3,0.1,0.5,0.5,0.3,0.9c-10.8,24.1-17.7,46.6-20.4,66.9C193.1,149.6,192.9,149.8,192.5,149.8z"/>
					<path class="st6" d="M196.6,149.8C196.6,149.8,196.5,149.8,196.6,149.8c-0.4-0.1-0.7-0.4-0.7-0.7c2.7-20.5,9.6-43.1,20.5-67.3
						c0.1-0.3,0.5-0.5,0.9-0.3c0.3,0.1,0.5,0.5,0.3,0.9c-10.9,24-17.7,46.6-20.4,66.9C197.2,149.6,196.9,149.8,196.6,149.8z"/>
					<path class="st6" d="M200.6,149.8C200.6,149.8,200.6,149.8,200.6,149.8c-0.4-0.1-0.7-0.4-0.7-0.7c2.7-20.6,9.6-43.2,20.5-67.3
						c0.1-0.3,0.5-0.5,0.9-0.3c0.3,0.1,0.5,0.5,0.3,0.9c-10.9,23.9-17.7,46.5-20.4,66.9C201.2,149.6,200.9,149.8,200.6,149.8z"/>
					<path class="st6" d="M204.7,149.8C204.6,149.8,204.6,149.8,204.7,149.8c-0.4-0.1-0.7-0.4-0.7-0.7c2.7-20.7,9.6-43.3,20.5-67.3
						c0.2-0.3,0.5-0.5,0.9-0.3c0.3,0.2,0.5,0.5,0.3,0.9c-10.9,23.8-17.7,46.4-20.4,66.9C205.3,149.6,205,149.8,204.7,149.8z"/>
					<path class="st6" d="M208.7,149.8C208.7,149.8,208.7,149.8,208.7,149.8c-0.4-0.1-0.7-0.4-0.7-0.7c2.7-20.8,9.6-43.4,20.5-67.3
						c0.2-0.3,0.5-0.5,0.9-0.3c0.3,0.2,0.5,0.5,0.3,0.9c-10.9,23.7-17.7,46.3-20.4,66.9C209.3,149.6,209,149.8,208.7,149.8z"/>
					<path class="st6" d="M212.8,149.8C212.7,149.8,212.7,149.8,212.8,149.8c-0.4-0.1-0.7-0.4-0.7-0.7c2-15.8,6.2-31.9,12.9-49.3
						c0.1-0.3,0.5-0.5,0.8-0.4c0.3,0.1,0.5,0.5,0.4,0.8c-6.6,17.3-10.8,33.3-12.8,49C213.4,149.6,213.1,149.8,212.8,149.8z"/>
					<path class="st6" d="M216.8,149.8C216.8,149.8,216.8,149.8,216.8,149.8c-0.4-0.1-0.7-0.4-0.7-0.7c2.7-21,9.6-43.6,20.5-67.3
						c0.2-0.3,0.5-0.5,0.9-0.3c0.3,0.2,0.5,0.5,0.3,0.9c-10.9,23.6-17.8,46.1-20.4,66.9C217.4,149.6,217.1,149.8,216.8,149.8z"/>
					<path class="st6" d="M220.9,149.8C220.8,149.8,220.8,149.8,220.9,149.8c-0.4-0.1-0.7-0.4-0.7-0.7c2.7-21.1,9.6-43.7,20.5-67.3
						c0.2-0.3,0.5-0.5,0.9-0.3c0.3,0.2,0.5,0.5,0.3,0.9c-10.9,23.5-17.8,46-20.4,66.9C221.5,149.6,221.2,149.8,220.9,149.8z"/>
					<path class="st6" d="M224.9,149.8C224.9,149.8,224.8,149.8,224.9,149.8c-0.4,0-0.7-0.4-0.7-0.7c2.7-21.2,9.6-43.8,20.5-67.3
						c0.2-0.3,0.5-0.5,0.9-0.3c0.3,0.2,0.5,0.5,0.3,0.9c-10.9,23.4-17.8,45.9-20.4,66.9C225.5,149.6,225.2,149.8,224.9,149.8z"/>
					<path class="st6" d="M228.9,149.8C228.9,149.8,228.9,149.8,228.9,149.8c-0.4,0-0.7-0.4-0.7-0.7c2.6-21.2,9.5-43.9,20.5-67.3
						c0.2-0.3,0.5-0.5,0.9-0.3c0.3,0.2,0.5,0.5,0.3,0.9c-10.9,23.3-17.8,45.8-20.4,66.9C229.5,149.6,229.3,149.8,228.9,149.8z"/>
					<path class="st6" d="M233,149.8C233,149.8,232.9,149.8,233,149.8c-0.4,0-0.7-0.4-0.7-0.7c2.6-21.3,9.5-44,20.5-67.3
						c0.2-0.3,0.5-0.5,0.9-0.3c0.3,0.2,0.5,0.5,0.3,0.9c-10.9,23.2-17.8,45.7-20.4,66.9C233.6,149.6,233.3,149.8,233,149.8z"/>
					<path class="st6" d="M237,149.8C237,149.8,237,149.8,237,149.8c-0.4,0-0.7-0.4-0.7-0.7c2.6-21.4,9.5-44.1,20.5-67.3
						c0.2-0.3,0.5-0.5,0.9-0.3c0.3,0.2,0.5,0.5,0.3,0.9c-10.9,23.1-17.8,45.6-20.4,66.9C237.6,149.6,237.4,149.8,237,149.8z"/>
					<path class="st6" d="M241.1,149.8C241.1,149.8,241,149.8,241.1,149.8c-0.4,0-0.7-0.4-0.7-0.7c1.7-14.3,5.4-29.2,10.9-44.3
						c0.1-0.3,0.5-0.5,0.8-0.4c0.3,0.1,0.5,0.5,0.4,0.8c-5.4,15-9.1,29.8-10.8,44C241.7,149.6,241.4,149.8,241.1,149.8z"/>
					<path class="st6" d="M245.1,149.8C245.1,149.8,245.1,149.8,245.1,149.8c-0.4,0-0.7-0.4-0.7-0.7c2.6-21.6,9.5-44.2,20.5-67.3
						c0.2-0.3,0.5-0.5,0.9-0.3c0.3,0.2,0.5,0.5,0.3,0.9c-11,22.9-17.8,45.5-20.4,66.9C245.7,149.6,245.4,149.8,245.1,149.8z"/>
					<path class="st6" d="M249.2,149.8C249.1,149.8,249.1,149.8,249.2,149.8c-0.4,0-0.7-0.4-0.7-0.7c2.6-21.7,9.5-44.3,20.5-67.3
						c0.2-0.3,0.6-0.5,0.9-0.3c0.3,0.2,0.5,0.5,0.3,0.9c-11,22.9-17.8,45.4-20.4,66.9C249.8,149.6,249.5,149.8,249.2,149.8z"/>
					<path class="st6" d="M253.2,149.8C253.2,149.8,253.2,149.8,253.2,149.8c-0.4,0-0.7-0.4-0.7-0.7c2.6-21.8,9.5-44.4,20.5-67.3
						c0.2-0.3,0.6-0.5,0.9-0.3c0.3,0.2,0.5,0.5,0.3,0.9c-11,22.8-17.8,45.3-20.4,66.9C253.8,149.6,253.5,149.8,253.2,149.8z"/>
					<path class="st6" d="M257.3,149.8C257.2,149.8,257.2,149.8,257.3,149.8c-0.4,0-0.7-0.4-0.7-0.7c2.6-21.9,9.5-44.5,20.5-67.3
						c0.2-0.3,0.5-0.5,0.9-0.3c0.3,0.2,0.5,0.5,0.3,0.9c-11,22.7-17.8,45.2-20.4,66.9C257.9,149.6,257.6,149.8,257.3,149.8z"/>
					<path class="st6" d="M261.3,149.8C261.3,149.8,261.3,149.8,261.3,149.8c-0.4,0-0.7-0.4-0.7-0.7c2.6-21.9,9.5-44.6,20.5-67.3
						c0.2-0.3,0.6-0.5,0.9-0.3c0.3,0.2,0.5,0.5,0.3,0.9c-11,22.6-17.9,45.1-20.4,66.9C261.9,149.6,261.6,149.8,261.3,149.8z"/>
					<path class="st6" d="M265.3,149.8C265.3,149.8,265.3,149.8,265.3,149.8c-0.4,0-0.7-0.4-0.7-0.7c2.6-22,9.5-44.7,20.5-67.3
						c0.2-0.3,0.6-0.5,0.9-0.3c0.3,0.2,0.5,0.5,0.3,0.9c-11,22.5-17.9,45-20.4,66.9C266,149.6,265.7,149.8,265.3,149.8z"/>
					<path class="st6" d="M269.4,149.8C269.4,149.8,269.3,149.8,269.4,149.8c-0.4,0-0.7-0.4-0.7-0.7c2.5-22.1,9.5-44.8,20.5-67.3
						c0.2-0.3,0.6-0.5,0.9-0.3c0.3,0.2,0.5,0.6,0.3,0.9c-11,22.4-17.9,44.9-20.4,66.9C270,149.6,269.7,149.8,269.4,149.8z"/>
					<path class="st6" d="M273.4,149.8C273.4,149.8,273.4,149.8,273.4,149.8c-0.4,0-0.7-0.4-0.7-0.7c2.5-22.2,9.4-44.8,20.5-67.3
						c0.2-0.3,0.6-0.5,0.9-0.3c0.3,0.2,0.5,0.6,0.3,0.9c-11,22.4-17.9,44.9-20.4,66.9C274,149.6,273.8,149.8,273.4,149.8z"/>
					<path class="st6" d="M277.5,149.8C277.5,149.8,277.4,149.8,277.5,149.8c-0.4,0-0.7-0.4-0.7-0.7c2.5-22.3,9.4-44.9,20.5-67.3
						c0.2-0.3,0.6-0.5,0.9-0.3c0.3,0.2,0.5,0.6,0.3,0.9c-11,22.3-17.9,44.8-20.4,66.9C278.1,149.6,277.8,149.8,277.5,149.8z"/>
					<path class="st6" d="M281.5,149.8C281.5,149.8,281.5,149.8,281.5,149.8c-0.4,0-0.7-0.4-0.7-0.7c1.1-9.8,3.1-19.7,5.8-29.6
						c0.1-0.3,0.5-0.5,0.8-0.5c0.3,0.1,0.5,0.5,0.5,0.8c-2.7,9.8-4.7,19.6-5.8,29.4C282.1,149.6,281.9,149.8,281.5,149.8z"/>
				</g>
				<path class="st14" d="M318.9,76c-5.3,3.1-13,18.9-19.5,41.1c-12.4,42.5-11.6,38.5-4.7,43c6.6,4.2,4.2,0.7,4.2,0.7l22.1-85
					L318.9,76z"/>
				<path class="st3" d="M87.2,174.9c0,0,6.6-6.9,9.6-12.7c0.4-0.7,1.1-1.1,1.9-1c6.6,0.8,36.6,4,70.9,1.5
					c21-1.5,91.2-11.7,122.6-4.6c3.9,0.9,5.9,5.2,4.1,8.8c-1.8,3.5-4.4,7.2-7.6,8H87.2z"/>
				<path class="st14" d="M216.1,160.4c-0.2,5.3-1.9,12.3-2.5,14.6h75.1c3.2-0.8,5.8-4.5,7.6-8c1.8-3.6-0.2-7.9-4.1-8.8
					c-17.6-4-47.4-2.5-73.9-0.2C217.1,158.1,216.1,159.1,216.1,160.4z"/>
				<path class="st15" d="M251.6,177.6H79c-1.4,0-2.6-1.2-2.6-2.6c0-1.4,1.2-2.6,2.6-2.6h172.7c1.4,0,2.6,1.2,2.6,2.6
					C254.2,176.4,253.1,177.6,251.6,177.6z"/>
				<path class="st9" d="M288.7,177.6h-76.1c-1.4,0-2.6-1.2-2.6-2.6c0-1.4,1.2-2.6,2.6-2.6H288c5.7-3.4,9.3-10.7,9.3-19.1
					c0-0.2,0-0.5,0.1-0.7l22.2-78.9c0.4-1.4,1.8-2.2,3.2-1.8c1.4,0.4,2.2,1.8,1.8,3.2l-22.1,78.5c-0.1,10.4-4.9,19.4-12.6,23.6
					C289.6,177.4,289.1,177.6,288.7,177.6z"/>
			</g>
		</g>
		<g>
			<g>
				<g>
					<path class="st16" d="M137.1,96.7c0.8,6,1,11.9,0.8,18c-0.1,3-0.4,6.1-1,9.2c-0.3,1.5-0.6,3.1-1.1,4.7
						c-0.5,1.6-1.1,3.2-1.9,4.6c-1.5,2.9-3.2,5.5-5.3,7.9c-2,2.4-4.3,4.6-6.7,6.5c-2.5,1.9-5.2,3.6-8.2,4.9c-3,1.2-6.3,2-9.6,1.7
						c-1.3-0.1-2.3-1.2-2.2-2.5c0.1-1.2,1-2.1,2.1-2.2l0.1,0c2.5-0.2,4.9-1,7.2-2.3c2.3-1.2,4.4-2.8,6.4-4.6
						c3.9-3.7,7.2-8.1,9.3-12.8c0.5-1.2,0.9-2.3,1.2-3.5c0.3-1.2,0.6-2.5,0.7-3.8c0.4-2.6,0.6-5.4,0.7-8.2c0.1-2.8,0.1-5.6,0-8.4
						c0-2.8-0.2-5.7-0.3-8.4l0-0.1c-0.1-2.2,1.6-4,3.7-4.1C135.1,93.1,136.8,94.7,137.1,96.7z"/>
					<path class="st7" d="M135.8,87.5c2.6-0.7,4.3,7.7,5.3,12.2c0.8,3.2,1.2,10.1,1.4,13.9c0.1,1.4-1.1,2.5-2.5,2.4l-10.9-0.9
						c-1.2-0.1-2.1-1-2.1-2.2C126.6,107,126.5,89.9,135.8,87.5z"/>
					<path class="st17" d="M110.4,222.1c1.6,3.3,4.3,10.6,4.3,10.6l4.6-1.1c0,0-2.2-8.9-3-11.5L110.4,222.1z"/>
					<path class="st17" d="M128.6,225.9c1.2,3.3,3.2,10.6,3.2,10.6l4.2-1.1c0,0-1.4-8.9-2-11.5L128.6,225.9z"/>
					<path class="st9" d="M169.3,94.1c-1.3-6.3-6.9-10.8-13.3-10.8c-0.1,0-0.2,0-0.3,0l-12,0.2c-0.6,0-1.2,0.2-1.7,0.4l-6.7,3.5
						c0,0,0,0,0,0c-4.8,2.5-7.3,7.9-6.2,13.2c5.8,26.4,5,48,5,48.2c0,1.1,0.4,2.2,1.3,3c0.7,0.7,1.7,1,2.7,1c0.1,0,0.3,0,0.4,0
						l30.5-3.5c1.9-0.2,3.3-1.7,3.5-3.6C174.1,122.4,171.2,103.4,169.3,94.1z"/>
					<path class="st3" d="M144.1,95.2c-4.1,0-7.4-3.3-7.4-7.4c0-4.1,3.3-7.4,7.4-7.4c4.1,0,7.4,3.3,7.4,7.4
						C151.6,91.9,148.2,95.2,144.1,95.2z M144.1,80.7c-3.9,0-7.1,3.2-7.1,7.1c0,3.9,3.2,7.1,7.1,7.1c3.9,0,7.1-3.2,7.1-7.1
						C151.3,83.8,148.1,80.7,144.1,80.7z"/>
					<path class="st3" d="M144.4,102.9c-0.6,0-1.2-0.3-1.6-0.9c-0.4-0.6-0.7-1.3-0.7-2.1c0-1.7,0.9-3.1,2.2-3.1c0,0,0,0,0,0
						c0.6,0,1.2,0.3,1.6,0.9c0.4,0.6,0.7,1.3,0.7,2.1l0,0c0,0.8-0.2,1.6-0.6,2.2C145.6,102.5,145.1,102.9,144.4,102.9
						C144.4,102.9,144.4,102.9,144.4,102.9z M144.3,97.1C144.3,97.1,144.3,97.1,144.3,97.1c-1.1,0-1.9,1.3-1.9,2.8
						c0,0.7,0.2,1.4,0.6,1.9c0.4,0.5,0.8,0.8,1.3,0.8c0,0,0,0,0,0c0.5,0,1-0.3,1.3-0.8c0.4-0.5,0.6-1.2,0.5-2l0,0
						c0-0.7-0.2-1.4-0.6-1.9C145.3,97.4,144.8,97.1,144.3,97.1z"/>
					<path class="st3" d="M145.5,110.4c-1.2,0-2.2-1.3-2.3-3c0-0.8,0.2-1.6,0.6-2.2c0.4-0.6,1-0.9,1.6-0.9c0,0,0,0,0,0
						c0.6,0,1.2,0.3,1.6,0.9c0.4,0.6,0.7,1.3,0.7,2.1l0,0c0,0.8-0.2,1.6-0.6,2.2C146.7,110.1,146.1,110.4,145.5,110.4
						C145.5,110.4,145.5,110.4,145.5,110.4z M145.4,104.6C145.4,104.6,145.4,104.6,145.4,104.6c-0.5,0-1,0.3-1.4,0.8
						c-0.4,0.5-0.6,1.2-0.5,2c0,1.5,0.9,2.7,2,2.7c0,0,0,0,0,0c0.5,0,1-0.3,1.3-0.8c0.4-0.5,0.6-1.2,0.5-2l0,0
						c0-0.7-0.2-1.4-0.6-1.9C146.4,104.9,145.9,104.6,145.4,104.6z"/>
					<path class="st18" d="M138.1,151.6l-3.5,0c-2.3,0-4.6,0.1-6.9,0.2c-4.6,0.2-9.3,0.6-13.9,1.3c-4.7,0.6-9.4,1.5-14.1,2.9
						c-4.7,1.3-9.6,3.1-14.4,5.9l0,0l-0.9,0.5c-0.4,0.2-0.9,0.5-1.2,0.9c-3.4,2.9-3.8,8-1,11.4c0.2,0.3,0.6,0.8,0.9,1.2l1,1.4
						c0.6,1,1.3,1.9,1.9,2.9c1.3,2,2.5,4,3.8,6.1c2.5,4.1,4.8,8.3,7.1,12.6c2.3,4.3,4.4,8.6,6.5,13c2.1,4.4,4.1,8.9,6,13.4l8.1-2.7
						c-1.2-4.8-2.5-9.7-3.9-14.5c-1.4-4.8-2.9-9.6-4.5-14.4c-1.6-4.8-3.3-9.6-5.2-14.3c-0.6-1.6-1.3-3.3-2-4.9
						c0.8-0.3,1.7-0.5,2.5-0.8c3.7-1,7.7-1.8,11.7-2.4c4-0.6,8.2-0.9,12.3-1.1c2.1-0.1,4.2-0.2,6.2-0.2l3.1,0c0,0,0,0,0,0
						c1.6,0,3-1.2,3.1-2.9l0.8-15.3C140.4,151.7,139.3,151.6,138.1,151.6z"/>
					<path class="st2" d="M174.6,154.8l-0.8-9.7c-0.1-1.1-0.6-2-1.4-2.7c-0.8-0.7-1.9-1-2.9-0.9l-32.6,3.7c-2,0.2-3.5,2-3.5,4
						l0.1,4.1c-2.9,0.7-5.9,1.4-8.8,2.3c-4.6,1.4-9.2,2.9-14,5l0,0l-0.7,0.3c-0.3,0.1-0.6,0.3-0.9,0.4c-3.9,2.3-5.3,7.3-3,11.2
						c0.2,0.4,0.5,0.9,0.8,1.4l0.8,1.6l1.5,3.3c1,2.2,2,4.5,3,6.8c1.9,4.6,3.8,9.2,5.5,13.9c1.8,4.7,3.4,9.4,5.1,14.1
						c1.6,4.8,3.2,9.5,4.7,14.4l8.5-1.9c-0.7-5.1-1.5-10.1-2.4-15.2c-0.9-5.1-1.8-10.1-2.9-15.2c-1-5-2.2-10.1-3.4-15.1
						c-0.5-2.1-1.1-4.1-1.6-6.2c1.3-0.4,2.7-0.9,4.1-1.3c4-1.2,8.2-2.1,12.4-3c4.2-0.9,8.5-1.6,12.8-2.3c1.3-0.2,2.5-0.4,3.8-0.6
						l5.1-0.3c1.3-0.1,2.6-0.4,3.7-0.9c0.1,0,0.2,0,0.2,0l0-0.1c1.5-0.7,2.9-1.6,4-2.9C173.8,160.8,174.8,157.9,174.6,154.8z"/>
					<path class="st7" d="M133.3,143.1c0,1.4-0.1,4.1-0.1,5.6c0,0.2,0.2,0.3,0.3,0.3c3.4-0.2,29.7-1.6,40.1-3.7
						c0.2,0,0.3-0.2,0.3-0.3c0-0.7,0-2.9-0.2-5.6c-0.1-1-1-1.8-2.1-1.6c-5.7,0.8-23.6,3.2-37.3,4.2
						C133.7,142.1,133.3,142.5,133.3,143.1z"/>
					<path class="st17" d="M143.8,92.7c-1.3,0-2.5-0.4-3.5-1.4c-7-6.4-7.7-16.3-7.8-17.5c-0.2-2.9,2.1-5.4,4.9-5.5
						c2.9-0.2,5.3,2,5.5,4.9c0.1,1.9,1.1,7.4,4.4,10.3c2.1,1.9,2.3,5.3,0.4,7.4C146.6,92.1,145.2,92.7,143.8,92.7z"/>
					<path class="st19" d="M141.2,79.2c0,0-13.4,3.2-4.4,9.8C144.4,94.7,146.8,82.3,141.2,79.2z"/>
					<path class="st17" d="M140.9,67.9c0,0.9,0.1,2,0.2,3.1l0.3,3.1c0.1,1,0.2,2,0.4,3c0.1,0.9,0.3,1.8,0.4,2.6l0.1,0.7
						c1,5.1-2.3,9.9-7.4,10.9c-4.5,0.9-8.8-1.6-10.4-5.7c-0.6-1.4-1-2.7-1.4-3.9c-0.4-1.2-0.8-2.4-1.1-3.6c-0.3-1.2-0.7-2.4-1-3.5
						c-0.3-1.2-0.6-2.3-0.9-3.6l-0.1-0.3c-1.3-5.7,2.3-11.3,8-12.5c5.7-1.3,11.3,2.3,12.5,8C140.8,66.7,140.9,67.3,140.9,67.9z"/>
					<path class="st2" d="M131.3,76.5c0.1,0.4,0.6,0.7,1,0.6c0.4-0.1,0.7-0.6,0.6-1c-0.1-0.4-0.6-0.7-1-0.6
						C131.4,75.6,131.2,76,131.3,76.5z"/>
					<path class="st2" d="M122.9,78.8c0.1,0.4,0.6,0.7,1,0.6c0.4-0.1,0.7-0.6,0.6-1c-0.1-0.4-0.6-0.7-1-0.6
						C123,77.9,122.8,78.4,122.9,78.8z"/>
					<path class="st2" d="M129.6,73.6l-0.3-0.5c0.1-0.1,3.1-1.7,5.3-0.3l-0.3,0.4C132.3,72.1,129.6,73.6,129.6,73.6z"/>
					<path class="st2" d="M133.5,84.7l-0.3-0.4c1.8-1.3,2.9-3.4,3-3.5l0.5,0.2C136.6,81.2,135.5,83.3,133.5,84.7z"/>
					<path class="st2" d="M120.3,75.9l-0.5-0.1c0,0,0.7-2.6,3.6-2.2l-0.1,0.5C120.9,73.7,120.3,75.8,120.3,75.9z"/>
					<path class="st19" d="M129.4,83.3h-2.3l0.1-0.3c0.4-2.1,0.1-4.2-0.8-6.2l0.5-0.2c0.9,2.1,1.2,4.2,0.9,6.2h1.7V83.3z"/>
					<path class="st2" d="M144.6,68c-0.1-4.5-0.2-6.5-2.5-6.5l1.8-1c0,0-0.9-0.4-1.9,0.2c0.8-1.6-0.1-2.8-0.1-2.8l-0.9,3
						c-1.5-3.3-6.3-6.4-13.2-3.1c-6.3,3-10.1,3.1-10.1,3.1s0.8,1,2.3,1.7c-2.6,0.2-5.2,0-5.2,0c0.6,1.2,1.9,2,3.3,2.6
						c-2,0.2-3.7,0.2-3.7,0.2c0.9,1.5,2.7,2.5,4.8,2.8c-1.5,0.8-2.6,1.2-2.6,1.2c3.1,2.8,11.3,0.6,15.8-3.5c2.6,5,7,10.6,9,10.5
						C144.6,76.1,144.7,75.2,144.6,68z"/>
					<path class="st17" d="M137.3,74.8c1.1-3.3,2.9-5.1,4.9-2.5c3,3.7-0.3,9.7-2.4,7.6C137.6,77.7,137.3,74.8,137.3,74.8z"/>
					<path class="st20" d="M133.6,226.3c-5.1-27.5-11.1-47.5-13.5-54.8c-0.5-1.7,0.3-3.5,1.9-4.2c18.4-7.5,44.6-10.5,44.8-10.5
						l0,0.3c-0.3,0-26.4,2.9-44.8,10.5c-1.5,0.6-2.2,2.3-1.8,3.8c2.4,7.3,8.4,27.3,13.5,54.8L133.6,226.3z"/>
					<path class="st8" d="M135.3,231.9c-1,1.2-2.9,2.2-4,2.6c-0.3,0.1-0.5,0.3-0.6,0.6c-0.5,2-2.9,9.1-5.6,11.1
						c-3,2.2,4.6,2.2,7.1-1.6c2.5-3.8,4.3-6,6-7.4c1.4-1.1,0.7-3.4-1.6-5.4C136.3,231.4,135.7,231.5,135.3,231.9z"/>
					<path class="st7" d="M118.7,229.7c-1.3,0.9-3.3,1.4-4.5,1.6c-0.3,0-0.5,0.2-0.7,0.5c-1,1.8-4.9,8.2-8,9.5c-3.4,1.4,4,3.1,7.3,0
						c3.2-3.1,5.5-4.9,7.5-5.8c1.6-0.8,1.4-3.2-0.3-5.6C119.8,229.5,119.2,229.4,118.7,229.7z"/>
					<path class="st3" d="M128.4,237.5c-0.3,0-0.6-0.1-0.9-0.3c-0.2-0.1-0.3-0.4-0.3-0.6c0-0.5,0.6-1,1.2-1.3
						c0.9-0.4,1.9-0.1,2.7,0.6c0,0,0.1,0.1,0.1,0.1c0,0,0,0.1,0,0.1C131,236.2,129.7,237.5,128.4,237.5z M129.3,235.4
						c-0.3,0-0.6,0.1-0.8,0.1c-0.6,0.2-1,0.7-1,1c0,0.1,0,0.3,0.2,0.3c1.1,0.7,2.6-0.5,3.1-1C130.2,235.6,129.7,235.4,129.3,235.4z"
						/>
					<path class="st3" d="M131,236.2C131,236.2,131,236.2,131,236.2c-0.1,0-2-0.1-2.8-1.1c-0.3-0.3-0.4-0.7-0.4-1.1
						c0-0.5,0.3-0.8,0.8-0.9c0,0,0,0,0.1,0c0.8,0,2.1,1,2.5,2.8c0,0,0,0.1,0,0.1C131.1,236.1,131,236.2,131,236.2z M128.7,233.4
						C128.6,233.4,128.6,233.4,128.7,233.4c-0.4,0-0.5,0.3-0.5,0.6c0,0.3,0.1,0.6,0.3,0.9c0.6,0.7,1.9,0.9,2.4,0.9
						C130.4,234.3,129.3,233.4,128.7,233.4z"/>
					<path class="st3" d="M111,233.7c-0.4,0-0.9-0.1-1.2-0.4c-0.2-0.2-0.3-0.4-0.2-0.7c0.1-0.5,0.7-0.9,1.4-1.1
						c0.9-0.2,1.9,0.2,2.6,1c0,0,0,0.1,0,0.1c0,0,0,0.1-0.1,0.1C113.5,232.8,112.2,233.7,111,233.7z M111.5,231.8
						c-0.2,0-0.3,0-0.4,0c-0.6,0.1-1.1,0.5-1.2,0.8c0,0.1,0,0.3,0.1,0.4c1,0.9,2.7-0.1,3.2-0.4C112.6,232,112,231.8,111.5,231.8z"/>
					<path class="st3" d="M113.5,232.8C113.5,232.8,113.4,232.8,113.5,232.8c-0.1,0-2-0.5-2.6-1.5c-0.2-0.4-0.3-0.8-0.2-1.2
						c0.1-0.5,0.5-0.8,0.9-0.7c0.8,0.1,2,1.3,2,3.2c0,0,0,0.1-0.1,0.1C113.5,232.8,113.5,232.8,113.5,232.8z M111.5,229.7
						c-0.3,0-0.4,0.2-0.5,0.5c-0.1,0.3,0,0.6,0.1,0.9c0.5,0.8,1.7,1.2,2.2,1.3C113.1,230.8,112.2,229.8,111.5,229.7
						C111.5,229.7,111.5,229.7,111.5,229.7z"/>
					<path class="st17" d="M173,108.1c-1.4-6.1-3.3-11.8-5.9-17.5c-0.8-1.9-3-2.8-4.9-2.1c-2,0.8-3.1,3-2.3,5l0.1,0.1
						c1,2.6,1.9,5.3,2.8,8c0.9,2.7,1.6,5.4,2.2,8.1c0.6,2.7,1,5.4,1.2,8c0.1,2.6-0.1,5.1-0.9,6.7c-0.1,0.3-0.6,1-0.9,1.6l-1.1,1.8
						c-0.7,1.2-1.5,2.4-2.3,3.5c-1.6,2.3-3.4,4.4-5.2,6.3c-3.7,3.8-8.3,6.4-13.5,7.2c-1.7-0.3-3.9-0.6-6.5-1.4
						c-0.4-0.1-0.9-0.1-1.4,0c-2.5,0.5-5.2,5.6-4.6,8.1c0.4,1.5,2.6,0.4,5,0.1c5.2-0.8,11.4-0.8,11.5-2c0-0.2,0-0.3,0-0.5
						c1.9-0.3,3.8-0.8,5.6-1.5c3.1-1.2,5.8-3,8.3-5.1c2.5-2,4.7-4.4,6.7-6.8c1-1.2,1.9-2.5,2.8-3.7l1.3-1.9c0.4-0.7,0.8-1.2,1.4-2.2
						c1-1.8,1.4-3.7,1.7-5.4c0.3-1.8,0.4-3.5,0.3-5.1C174.2,114.3,173.7,111.2,173,108.1z"/>
					<path class="st9" d="M159.1,83.6c-2.7-0.3-1.1,8.8-0.8,13.4s1.7,13.2,1.7,13.2l13.4-2.2c0.9-0.2,1.6-1,1.4-2
						C173.9,100.8,170.3,84.9,159.1,83.6z"/>
					<path class="st3" d="M159.8,110.3c0-0.1-1.5-8.7-1.7-13.2c0-0.5-0.1-1-0.1-1.5c-0.1-2.2-0.3-4.9-0.2-7.1l0.3,0
						c-0.1,2.2,0.1,4.9,0.2,7.1c0,0.5,0.1,1,0.1,1.5c0.3,4.5,1.7,13.1,1.7,13.2L159.8,110.3z"/>
					<polygon class="st21" points="126,226.4 126.9,229.8 137.2,228.1 136.6,223.9 					"/>
					<polygon class="st2" points="107.4,222.8 108.5,226.2 118.7,224.1 118,219.9 					"/>
					<path class="st2" d="M145.8,150.5C145.8,150.5,145.8,150.5,145.8,150.5c-0.4,0-0.7-0.3-0.7-0.7c0.1-1.5-0.2-2.5-0.8-3.2
						c-0.7-0.7-1.8-1-3.7-1c-0.4,0-0.7-0.3-0.7-0.7c0-0.4,0.3-0.7,0.7-0.7c2.2,0,3.7,0.5,4.6,1.5c0.9,0.9,1.2,2.3,1.1,4.2
						C146.4,150.2,146.1,150.5,145.8,150.5z"/>
					<g>
						<path class="st5" d="M146.9,144.8c0.1,0.6-1.5,1.2-3.5,1.4c-2,0.2-3.7-0.2-3.7-0.8l0-0.5l7.3-0.6L146.9,144.8z"/>
						<path class="st2" d="M146.9,144.3c0.1,0.6-1.5,1.2-3.5,1.4c-2,0.2-3.7-0.2-3.7-0.8c-0.1-0.6,1.5-1.2,3.5-1.4
							C145.2,143.4,146.8,143.7,146.9,144.3z"/>
						<path class="st5" d="M146.1,144.4c0,0.3-1.2,0.7-2.8,0.9c-1.6,0.1-2.8-0.1-2.9-0.4s1.2-0.7,2.8-0.9
							C144.7,143.9,146,144,146.1,144.4z"/>
					</g>
				</g>
				<g>
					<path class="st13" d="M74.8,159.7c0.2,1.2,1.3,2.1,2.6,1.9l75.9-11.1c1.2-0.2,2.1-1.3,1.9-2.6L74.8,159.7z"/>
					<path class="st22" d="M128.8,151.9L128.8,151.9c0.4,1.3,1.6,2,2.9,1.9l21.6-3.2c1.2-0.2,2.1-1.3,1.9-2.6L128.8,151.9z"/>
					<path class="st13" d="M127.7,152.9L77,160.3c-2.2,0.3-4.5-1.2-5.2-3.3l-10.2-33.7c-0.6-2.1,0.6-4.2,2.8-4.5l50.7-7.4
						c2.2-0.3,4.5,1.2,5.2,3.3l10.2,33.7C131.2,150.5,129.9,152.6,127.7,152.9z"/>
					<path class="st4" d="M126.6,153l-50.7,7.4c-2.2,0.3-4.5-1.2-5.2-3.3l-10.2-33.7c-0.6-2.1,0.6-4.2,2.8-4.5l50.7-7.4
						c2.2-0.3,4.5,1.2,5.2,3.3l10.2,33.7C130,150.7,128.8,152.7,126.6,153z"/>
					<path class="st3" d="M75.1,159.4c-1.4,0-2.8-1-3.2-2.4l-10.2-33.7c-0.2-0.8-0.1-1.5,0.3-2.1c0.4-0.6,1-1,1.8-1.1l50.7-7.4
						c1.6-0.2,3.2,0.8,3.7,2.4l10.2,33.7c0.2,0.8,0.1,1.5-0.3,2.1c-0.4,0.6-1,1-1.8,1.1l-50.7,7.4C75.4,159.4,75.3,159.4,75.1,159.4
						z M75.5,159l0,0.2L75.5,159l50.7-7.4c0.7-0.1,1.2-0.4,1.5-1c0.3-0.5,0.4-1.2,0.2-1.9l-10.2-33.7c-0.4-1.4-1.9-2.3-3.3-2.1
						l-50.7,7.4c-0.7,0.1-1.2,0.4-1.5,1c-0.3,0.5-0.4,1.2-0.2,1.9l10.2,33.7C72.6,158.3,74.1,159.2,75.5,159z"/>
					<path class="st3" d="M94.8,144.5c-0.6,0-1.2-0.1-1.8-0.2c-0.8-0.2-1.4-0.7-1.8-1.4c-0.3-0.7-0.3-1.4,0.1-2v0
						c0.7-1.3,0.9-2.8,0.4-4.4c-0.5-1.6-1.5-2.9-2.9-3.9c-0.7-0.5-1.1-1.3-1-2.2c0.1-0.9,0.6-1.6,1.4-1.9c0.6-0.2,1.3-0.4,1.9-0.5
						c4.6-0.7,9.5,2.5,10.8,7c0.7,2.2,0.4,4.4-0.7,6.2c-1.1,1.8-3,2.9-5.2,3.3C95.6,144.5,95.2,144.5,94.8,144.5z M91.9,141.2
						c-0.3,0.4-0.3,1-0.1,1.5c0.2,0.5,0.7,0.9,1.3,1c1,0.2,1.9,0.2,2.8,0.1c2-0.3,3.7-1.4,4.8-3c1-1.6,1.3-3.7,0.7-5.7
						c-1.3-4.2-5.8-7.1-10.1-6.5c-0.6,0.1-1.2,0.3-1.8,0.5c-0.6,0.2-1,0.8-1,1.4c-0.1,0.6,0.2,1.2,0.7,1.6c1.6,1.1,2.7,2.6,3.2,4.3
						C92.9,138,92.8,139.8,91.9,141.2L91.9,141.2z"/>
				</g>
			</g>
		</g>
		<g>
			<line class="st11" x1="64.7" y1="170.9" x2="64.5" y2="171.1"/>
		</g>
	</g>
</g>
</svg>
