<?xml version="1.0" encoding="utf-8"?>
<!-- Generator: Adobe Illustrator 22.0.1, SVG Export Plug-In . SVG Version: 6.00 Build 0)  -->
<svg version="1.1" id="Layer_1" xmlns="http://www.w3.org/2000/svg" xmlns:xlink="http://www.w3.org/1999/xlink" x="0px" y="0px"
	 width="999px" height="821.8px" viewBox="0 0 999 821.8" style="enable-background:new 0 0 999 821.8;" xml:space="preserve">
<style type="text/css">
	.st0{fill:#303BFC;}
	.st1{opacity:0.2;fill:#F0418B;}
	.st2{fill:#22E2BF;}
	.st3{fill:#19A88E;}
	.st4{fill:#9B9AEC;}
	.st5{fill:#FFFFFF;}
	.st6{fill:#13256E;}
	.st7{fill:#7776B5;}
	.st8{fill:#F9C15C;}
	.st9{fill:#3F3FA1;}
	.st10{fill:#222257;}
	.st11{fill:none;stroke:#F3A715;stroke-width:1.1199;stroke-miterlimit:10;}
	.st12{opacity:0.58;fill:url(#SVGID_1_);}
	.st13{fill:#4C4DC3;}
	.st14{opacity:0.28;fill:#9B9AEC;}
	.st15{fill:#8EC1FD;}
	.st16{clip-path:url(#SVGID_3_);}
	.st17{fill:#E0E0E0;}
	.st18{fill:#253469;}
	.st19{fill:#D99D30;}
	.st20{fill:#E2E2F0;}
	.st21{fill:#BD892A;}
	.st22{clip-path:url(#SVGID_5_);}
	.st23{clip-path:url(#SVGID_7_);fill:#D3D3E0;}
	.st24{fill:#F0418B;}
	.st25{fill:#D42A72;}
	.st26{clip-path:url(#SVGID_9_);}
	.st27{clip-path:url(#SVGID_11_);fill:#D3D3E0;}
	.st28{fill:none;stroke:#4C4DC3;stroke-width:6.8114;stroke-linecap:round;stroke-miterlimit:10;}
	.st29{fill:#0C2550;}
	.st30{fill:#FECFB8;}
	.st31{fill:#FCB18B;}
	.st32{fill:#FCAC86;}
	.st33{fill:#FFA97E;}
	.st34{fill:#E6966E;}
	.st35{fill:#FCBA99;}
	.st36{fill:#FCB08B;}
	.st37{fill:#D5DDFC;}
	.st38{fill:#AFB5CF;}
	.st39{fill:#6FA6F1;}
	.st40{fill:#3E75C2;}
	.st41{fill:#1AAB90;}
	.st42{opacity:0.65;}
	.st43{fill:#BF346F;}
	.st44{fill:#DB1F6E;}
	.st45{fill:#F7F7F7;}
	.st46{fill:none;stroke:#9B9AEC;stroke-width:1.6323;stroke-linecap:round;stroke-linejoin:round;stroke-miterlimit:10;}
	.st47{opacity:0.71;}
	.st48{fill:none;stroke:#F0418B;stroke-width:0.9885;stroke-linecap:round;stroke-linejoin:round;stroke-miterlimit:10;}
	.st49{opacity:0.63;}
	.st50{fill:#FE9A8A;}
	.st51{fill:#22305E;}
	.st52{fill:#2E4281;}
	.st53{fill:#E3B054;}
	.st54{fill:none;stroke:#000000;stroke-width:0.8267;stroke-linecap:round;stroke-linejoin:round;stroke-miterlimit:10;}
</style>
<g id="Layer_2_1_">
</g>
<path class="st0" d="M492,884"/>
<g>
	<g>
		<path class="st1" d="M488.3,642.3c-18.8-1.5-37.7-0.6-56.2,2.8c-91.5,16.8-377,55.2-355.8-124.7c25.2-214,82.6-243.7,18.3-337.5
			C30.5,89.1,337.4-28.7,437.5,58.8c100.1,87.6,274.6-9.5,311.5,87.6c36.9,97,68.5,221.2-16.6,327
			C650.7,574.8,696.2,659.4,488.3,642.3z"/>
		<g>
			<path class="st2" d="M582.6,499.4H70.5c-9.4,0-16.9-7.6-16.9-16.9v-36.5c0-9.4,7.6-16.9,16.9-16.9h512.1
				c9.4,0,16.9,7.6,16.9,16.9v36.5C599.6,491.8,592,499.4,582.6,499.4z"/>
			<g>
				<path class="st3" d="M496.9,486.8H91.3c-6,0-10.9-4.9-10.9-10.9v-23.5c0-6,4.9-10.9,10.9-10.9h405.6c6,0,10.9,4.9,10.9,10.9
					v23.5C507.8,482,502.9,486.8,496.9,486.8z"/>
				<circle class="st3" cx="558.9" cy="464.2" r="22.7"/>
			</g>
		</g>
		<g>
			<g>
				<path class="st4" d="M548.5,433.2H160.9c-4.8,0-8.7-3.9-8.7-8.7V170.7c0-4.8,3.9-8.7,8.7-8.7h387.6c4.8,0,8.7,3.9,8.7,8.7v253.8
					C557.1,429.3,553.2,433.2,548.5,433.2z"/>
				<polygon class="st5" points="542.9,421.8 166.4,421.8 166.4,173.5 542.9,173.5 542.9,173.5 542.9,421.8 				"/>
				<path class="st6" d="M213.4,345.5"/>
				<path class="st4" d="M584.8,433.2H139.5c-6.4,0-11.7-5.2-11.7-11.7v-14.4h468.7v14.4C596.5,428,591.2,433.2,584.8,433.2z"/>
				<path class="st7" d="M431.8,421.8H292.5c-3.6,0-6.6-2.9-6.6-6.6v-8.1h152.5v8.1C438.4,418.9,435.4,421.8,431.8,421.8z"/>
				<g>
					<g>
						<g>
							<path class="st8" d="M402.1,287.8c0-26.3-21.3-47.7-47.6-47.8c-26.5-0.1-48,21.3-48,47.8c0,16.4,8.3,30.9,20.9,39.5
								c4.2,2.9,6.6,7.7,6.6,12.8v1c0,7,5.7,12.7,12.7,12.7h15.2c7,0,12.7-5.7,12.7-12.7v-1c0-5.1,2.5-9.9,6.7-12.8
								C393.8,318.6,402.1,304.2,402.1,287.8z"/>
							<path class="st9" d="M367.6,367.4h-25.9c-2.2,0-4.1-1.8-4.1-4.1v-14.8h34v14.8C371.7,365.6,369.9,367.4,367.6,367.4z"/>
							<path class="st10" d="M372.1,353.4h-34.8c-0.2,0-0.3-0.1-0.3-0.3v-2c0-0.2,0.1-0.3,0.3-0.3h34.8c0.2,0,0.3,0.1,0.3,0.3v2
								C372.4,353.3,372.3,353.4,372.1,353.4z"/>
							<path class="st10" d="M372.1,358.7h-34.8c-0.2,0-0.3-0.1-0.3-0.3v-2c0-0.2,0.1-0.3,0.3-0.3h34.8c0.2,0,0.3,0.1,0.3,0.3v2
								C372.4,358.6,372.3,358.7,372.1,358.7z"/>
							<path class="st11" d="M349.8,348.6c0,0-1.3-69.5-18.7-65.9c-17.4,3.6,44.5,42.4,40.5,7.2c-3-26.4-20.5,21.7-12.8,58.7"/>
						</g>
						<linearGradient id="SVGID_1_" gradientUnits="userSpaceOnUse" x1="315.4578" y1="285.3929" x2="346.7766" y2="248.7357">
							<stop  offset="0.1324" style="stop-color:#FFFFFF;stop-opacity:0"/>
							<stop  offset="1" style="stop-color:#FFFFFF"/>
						</linearGradient>
						<path class="st12" d="M350.7,247.3c0,0-27.3-1.8-38.2,34.6l14.6,5.5C327,287.3,325.2,267.3,350.7,247.3z"/>
					</g>
					<g>
						<path class="st9" d="M398.5,257.5c0,3.1-1.8,6-4.6,7.2c-7.9,3.6-19.8,7.6-34.7,8c-17.1,0.4-30.7-4.2-39.3-8
							c-2.8-1.3-4.7-4.1-4.7-7.2v-44h83.2V257.5z"/>
						<path class="st13" d="M416.5,220.8l-60.8-26.2c-0.7-0.3-1.4-0.3-2.1,0l-60.8,26.2c-2.2,0.9-2.1,4,0.1,4.9l60.8,22.9
							c0.6,0.2,1.3,0.2,1.9,0l60.8-22.9C418.6,224.9,418.7,221.8,416.5,220.8z"/>
						<g>
							<path class="st10" d="M309.4,267.1c-1.2,0-2.2-1-2.2-2.2v-27.4c0-0.9,0.5-1.7,1.3-2l46.5-19.6c1.1-0.5,2.4,0.1,2.9,1.2
								c0.5,1.1-0.1,2.4-1.2,2.9l-45.2,19v26C311.6,266.1,310.6,267.1,309.4,267.1z"/>
						</g>
						<path class="st10" d="M312.4,272.7h-6c-1,0-1.9-0.8-1.9-1.9v-14.3c0-1,0.8-1.9,1.9-1.9h6c1,0,1.9,0.8,1.9,1.9v14.3
							C314.3,271.9,313.4,272.7,312.4,272.7z"/>
					</g>
				</g>
			</g>
			<g>
				<g>
					<g>
						<path class="st14" d="M319.9,192.1H178.9c-0.8,0-1.4-0.6-1.4-1.4v-3c0-0.8,0.6-1.4,1.4-1.4h140.9c0.8,0,1.4,0.6,1.4,1.4v3
							C321.2,191.5,320.6,192.1,319.9,192.1z"/>
						<path class="st14" d="M256.6,206.1h-77.6c-0.8,0-1.4-0.6-1.4-1.4v-3c0-0.8,0.6-1.4,1.4-1.4h77.6c0.8,0,1.4,0.6,1.4,1.4v3
							C257.9,205.5,257.3,206.1,256.6,206.1z"/>
						<path class="st14" d="M256.6,220.2h-77.6c-0.8,0-1.4-0.6-1.4-1.4v-3c0-0.8,0.6-1.4,1.4-1.4h77.6c0.8,0,1.4,0.6,1.4,1.4v3
							C257.9,219.6,257.3,220.2,256.6,220.2z"/>
					</g>
					<g>
						<path class="st14" d="M319.9,389.4H178.9c-0.8,0-1.4-0.6-1.4-1.4v-3c0-0.8,0.6-1.4,1.4-1.4h140.9c0.8,0,1.4,0.6,1.4,1.4v3
							C321.2,388.8,320.6,389.4,319.9,389.4z"/>
						<path class="st14" d="M256.6,360.7h-77.6c-0.8,0-1.4-0.6-1.4-1.4v-3c0-0.8,0.6-1.4,1.4-1.4h77.6c0.8,0,1.4,0.6,1.4,1.4v3
							C257.9,360.1,257.3,360.7,256.6,360.7z"/>
						<path class="st14" d="M256.6,374.8h-77.6c-0.8,0-1.4-0.6-1.4-1.4v-3c0-0.8,0.6-1.4,1.4-1.4h77.6c0.8,0,1.4,0.6,1.4,1.4v3
							C257.9,374.1,257.3,374.8,256.6,374.8z"/>
					</g>
					<g>
						<path class="st14" d="M284.5,246H178.9c-0.8,0-1.4-0.6-1.4-1.4v-3c0-0.8,0.6-1.4,1.4-1.4h105.6c0.8,0,1.4,0.6,1.4,1.4v3
							C285.9,245.4,285.3,246,284.5,246z"/>
						<path class="st14" d="M284.5,257.5H178.9c-0.8,0-1.4-0.6-1.4-1.4v-3c0-0.8,0.6-1.4,1.4-1.4h105.6c0.8,0,1.4,0.6,1.4,1.4v3
							C285.9,256.8,285.3,257.5,284.5,257.5z"/>
						<path class="st14" d="M284.5,269H178.9c-0.8,0-1.4-0.6-1.4-1.4v-3c0-0.8,0.6-1.4,1.4-1.4h105.6c0.8,0,1.4,0.6,1.4,1.4v3
							C285.9,268.3,285.3,269,284.5,269z"/>
						<path class="st14" d="M284.5,280.4H178.9c-0.8,0-1.4-0.6-1.4-1.4v-3c0-0.8,0.6-1.4,1.4-1.4h105.6c0.8,0,1.4,0.6,1.4,1.4v3
							C285.9,279.8,285.3,280.4,284.5,280.4z"/>
					</g>
					<g>
						<path class="st14" d="M284.5,303.3H178.9c-0.8,0-1.4-0.6-1.4-1.4v-3c0-0.8,0.6-1.4,1.4-1.4h105.6c0.8,0,1.4,0.6,1.4,1.4v3
							C285.9,302.7,285.3,303.3,284.5,303.3z"/>
						<path class="st14" d="M284.5,314.8H178.9c-0.8,0-1.4-0.6-1.4-1.4v-3c0-0.8,0.6-1.4,1.4-1.4h105.6c0.8,0,1.4,0.6,1.4,1.4v3
							C285.9,314.2,285.3,314.8,284.5,314.8z"/>
						<path class="st14" d="M284.5,326.3H178.9c-0.8,0-1.4-0.6-1.4-1.4v-3c0-0.8,0.6-1.4,1.4-1.4h105.6c0.8,0,1.4,0.6,1.4,1.4v3
							C285.9,325.7,285.3,326.3,284.5,326.3z"/>
						<path class="st14" d="M284.5,337.8H178.9c-0.8,0-1.4-0.6-1.4-1.4v-3c0-0.8,0.6-1.4,1.4-1.4h105.6c0.8,0,1.4,0.6,1.4,1.4v3
							C285.9,337.2,285.3,337.8,284.5,337.8z"/>
					</g>
				</g>
				<g>
					<g>
						<path class="st14" d="M389.1,192.1H530c0.8,0,1.4-0.6,1.4-1.4v-3c0-0.8-0.6-1.4-1.4-1.4H389.1c-0.8,0-1.4,0.6-1.4,1.4v3
							C387.7,191.5,388.3,192.1,389.1,192.1z"/>
						<path class="st14" d="M452.3,206.1H530c0.8,0,1.4-0.6,1.4-1.4v-3c0-0.8-0.6-1.4-1.4-1.4h-77.6c-0.8,0-1.4,0.6-1.4,1.4v3
							C451,205.5,451.6,206.1,452.3,206.1z"/>
						<path class="st14" d="M452.3,220.2H530c0.8,0,1.4-0.6,1.4-1.4v-3c0-0.8-0.6-1.4-1.4-1.4h-77.6c-0.8,0-1.4,0.6-1.4,1.4v3
							C451,219.6,451.6,220.2,452.3,220.2z"/>
					</g>
					<g>
						<path class="st14" d="M389.1,389.4H530c0.8,0,1.4-0.6,1.4-1.4v-3c0-0.8-0.6-1.4-1.4-1.4H389.1c-0.8,0-1.4,0.6-1.4,1.4v3
							C387.7,388.8,388.3,389.4,389.1,389.4z"/>
						<path class="st14" d="M452.3,360.7H530c0.8,0,1.4-0.6,1.4-1.4v-3c0-0.8-0.6-1.4-1.4-1.4h-77.6c-0.8,0-1.4,0.6-1.4,1.4v3
							C451,360.1,451.6,360.7,452.3,360.7z"/>
						<path class="st14" d="M452.3,374.8H530c0.8,0,1.4-0.6,1.4-1.4v-3c0-0.8-0.6-1.4-1.4-1.4h-77.6c-0.8,0-1.4,0.6-1.4,1.4v3
							C451,374.1,451.6,374.8,452.3,374.8z"/>
					</g>
					<g>
						<path class="st14" d="M424.4,246H530c0.8,0,1.4-0.6,1.4-1.4v-3c0-0.8-0.6-1.4-1.4-1.4H424.4c-0.8,0-1.4,0.6-1.4,1.4v3
							C423,245.4,423.6,246,424.4,246z"/>
						<path class="st14" d="M424.4,257.5H530c0.8,0,1.4-0.6,1.4-1.4v-3c0-0.8-0.6-1.4-1.4-1.4H424.4c-0.8,0-1.4,0.6-1.4,1.4v3
							C423,256.8,423.6,257.5,424.4,257.5z"/>
						<path class="st14" d="M424.4,269H530c0.8,0,1.4-0.6,1.4-1.4v-3c0-0.8-0.6-1.4-1.4-1.4H424.4c-0.8,0-1.4,0.6-1.4,1.4v3
							C423,268.3,423.6,269,424.4,269z"/>
						<path class="st14" d="M424.4,280.4H530c0.8,0,1.4-0.6,1.4-1.4v-3c0-0.8-0.6-1.4-1.4-1.4H424.4c-0.8,0-1.4,0.6-1.4,1.4v3
							C423,279.8,423.6,280.4,424.4,280.4z"/>
					</g>
					<g>
						<path class="st14" d="M424.4,303.3H530c0.8,0,1.4-0.6,1.4-1.4v-3c0-0.8-0.6-1.4-1.4-1.4H424.4c-0.8,0-1.4,0.6-1.4,1.4v3
							C423,302.7,423.6,303.3,424.4,303.3z"/>
						<path class="st14" d="M424.4,314.8H530c0.8,0,1.4-0.6,1.4-1.4v-3c0-0.8-0.6-1.4-1.4-1.4H424.4c-0.8,0-1.4,0.6-1.4,1.4v3
							C423,314.2,423.6,314.8,424.4,314.8z"/>
						<path class="st14" d="M424.4,326.3H530c0.8,0,1.4-0.6,1.4-1.4v-3c0-0.8-0.6-1.4-1.4-1.4H424.4c-0.8,0-1.4,0.6-1.4,1.4v3
							C423,325.7,423.6,326.3,424.4,326.3z"/>
						<path class="st14" d="M424.4,337.8H530c0.8,0,1.4-0.6,1.4-1.4v-3c0-0.8-0.6-1.4-1.4-1.4H424.4c-0.8,0-1.4,0.6-1.4,1.4v3
							C423,337.2,423.6,337.8,424.4,337.8z"/>
					</g>
				</g>
			</g>
		</g>
		<g>
			<g>
				<path class="st15" d="M593.8,569.8H70.5c-9.4,0-16.9-7.6-16.9-16.9v-36.5c0-9.4,7.6-16.9,16.9-16.9h523.3c3.2,0,5.7,2.6,5.7,5.7
					V564C599.6,567.2,597,569.8,593.8,569.8z"/>
				<path class="st5" d="M89.2,560.2c-14.4,0-26.1-11.5-26.1-25.6c0-14.1,11.7-25.6,26.1-25.6h508c1.3,0,2.4,1,2.4,2.3v46.5
					c0,1.3-1.1,2.3-2.4,2.3H89.2z"/>
			</g>
			<path class="st13" d="M593.8,569.8H70.5c-9.4,0-16.9-7.6-16.9-16.9v-36.5c0-9.4,7.6-16.9,16.9-16.9h523.3c3.2,0,5.7,2.6,5.7,5.7
				V564C599.6,567.2,597,569.8,593.8,569.8z"/>
			<path class="st5" d="M89.2,560.2c-14.4,0-26.1-11.5-26.1-25.6c0-14.1,11.7-25.6,26.1-25.6h508c1.3,0,2.4,1,2.4,2.3v46.5
				c0,1.3-1.1,2.3-2.4,2.3H89.2z"/>
			<g>
				<defs>
					<path id="SVGID_2_" d="M89.2,560.2c-14.4,0-26.1-11.5-26.1-25.6c0-14.1,11.7-25.6,26.1-25.6h508c1.3,0,2.4,1,2.4,2.3v46.5
						c0,1.3-1.1,2.3-2.4,2.3H89.2z"/>
				</defs>
				<clipPath id="SVGID_3_">
					<use xlink:href="#SVGID_2_"  style="overflow:visible;"/>
				</clipPath>
				<g class="st16">
					<rect x="65.4" y="515.9" class="st17" width="543.6" height="3.2"/>
					<rect x="65.4" y="529.6" class="st17" width="543.6" height="3.2"/>
					<rect x="65.4" y="548.5" class="st17" width="543.6" height="3.2"/>
				</g>
			</g>
		</g>
		<path class="st18" d="M559.6,347.9c-15.8-10.8-36.6,2.6-32.6,21.3c0.1,0.3,0.1,0.6,0.2,0.9c4.5,18.2,15.7,18.6,15.7,18.6
			s33.6,6.3,28.2-21.9C569.3,357.3,564.8,351.4,559.6,347.9z"/>
		<g>
			<g>
				<path class="st8" d="M782.6,520.7H541.1l-34.7,24.8c-0.7,0.5-0.3,1.6,0.5,1.6l232.7-4.2L782.6,520.7z"/>
				<path class="st19" d="M736,604.4H527.8c-18.4,0-33.4-14.9-33.4-33.4v0c0-18.4,14.9-33.4,33.4-33.4H736c0,10.9,0,21.9,0,32.8
					C736,581.8,736,593.1,736,604.4z"/>
				<path class="st20" d="M782.6,523.9v58.8L736,599.1c-2.5-5.3-6.7-15.9-6.4-29.7c0.3-12.1,3.9-21.3,6.4-26.5
					C751.5,536.6,767,530.2,782.6,523.9z"/>
				<path class="st5" d="M526.9,599.1c-15.2,0-27.5-13-27.1-28.9c0.4-15.3,12.9-27.3,27.7-27.3H736c-2.4,5.1-5.9,14.4-6.1,26.5
					c-0.3,13.8,3.7,24.3,6.1,29.7C666.3,599.1,596.6,599.1,526.9,599.1z"/>
				<polygon class="st21" points="736,537.7 782.6,520.7 782.6,526 736,542.9 				"/>
				<polygon class="st21" points="736,599.1 782.6,582.1 782.6,587.4 736,604.4 				"/>
				<g>
					<defs>
						<path id="SVGID_4_" d="M526.9,599.1c-15.2,0-27.5-13-27.1-28.9c0.4-15.3,12.9-27.3,27.7-27.3H736c-2.4,5.1-5.9,14.4-6.1,26.5
							c-0.3,13.8,3.7,24.3,6.1,29.7C666.3,599.1,596.6,599.1,526.9,599.1z"/>
					</defs>
					<clipPath id="SVGID_5_">
						<use xlink:href="#SVGID_4_"  style="overflow:visible;"/>
					</clipPath>
					<g class="st22">
						<rect x="497.1" y="551.4" class="st17" width="241.7" height="2.1"/>
						<rect x="497.1" y="561.4" class="st17" width="241.7" height="2.1"/>
						<rect x="497.1" y="571.4" class="st17" width="241.7" height="2.1"/>
						<rect x="497.1" y="581.4" class="st17" width="241.7" height="2.1"/>
						<rect x="497.1" y="591.4" class="st17" width="241.7" height="2.1"/>
					</g>
				</g>
				<g>
					<defs>
						<path id="SVGID_6_" d="M782.6,523.9v58.8L736,599.1c-2.5-5.3-6.7-15.9-6.4-29.7c0.3-12.1,3.9-21.3,6.4-26.5
							C751.5,536.6,767,530.2,782.6,523.9z"/>
					</defs>
					<clipPath id="SVGID_7_">
						<use xlink:href="#SVGID_6_"  style="overflow:visible;"/>
					</clipPath>
					
						<rect x="723.9" y="540.8" transform="matrix(0.9302 -0.3671 0.3671 0.9302 -145.8873 316.5989)" class="st23" width="70.8" height="2"/>
					
						<rect x="725.4" y="549.1" transform="matrix(0.9302 -0.3671 0.3671 0.9302 -148.8238 317.7552)" class="st23" width="70.8" height="2"/>
					
						<rect x="725.4" y="558.9" transform="matrix(0.9302 -0.3671 0.3671 0.9302 -152.4152 318.4383)" class="st23" width="70.8" height="2"/>
					
						<rect x="727.5" y="568.9" transform="matrix(0.9302 -0.3671 0.3671 0.9302 -155.9703 319.8959)" class="st23" width="70.8" height="2"/>
					
						<rect x="729.1" y="578.3" transform="matrix(0.9302 -0.3671 0.3671 0.9302 -159.3084 321.1283)" class="st23" width="70.8" height="2"/>
				</g>
				<path class="st8" d="M705.9,585.3l-9.2-5c-0.8-0.4-1.7-0.4-2.5,0l-9.2,5c-1.7,0.9-3.8-0.3-3.8-2.3v-31.7h28.5V583
					C709.8,585,707.7,586.3,705.9,585.3z"/>
			</g>
			<g>
				<path class="st24" d="M726.3,448.4H484.7L450,473.2c-0.7,0.5-0.3,1.6,0.5,1.6l232.7-4.2L726.3,448.4z"/>
				<path class="st25" d="M679.6,532.1H471.5c-18.4,0-33.4-14.9-33.4-33.4l0,0c0-18.4,14.9-33.4,33.4-33.4h208.1
					c0,10.9,0,21.9,0,32.8C679.6,509.5,679.6,520.8,679.6,532.1z"/>
				<path class="st20" d="M726.3,451.6v58.8l-46.6,16.4c-2.5-5.3-6.7-15.9-6.4-29.7c0.3-12.1,3.9-21.3,6.4-26.5
					C695.2,464.3,710.7,458,726.3,451.6z"/>
				<path class="st5" d="M470.5,526.8c-15.2,0-27.5-13-27.1-28.9c0.4-15.3,12.9-27.3,27.7-27.3h208.5c-2.4,5.1-5.9,14.4-6.1,26.5
					c-0.3,13.8,3.7,24.3,6.1,29.7C609.9,526.8,540.2,526.8,470.5,526.8z"/>
				<polygon class="st25" points="679.6,526.8 726.3,509.9 726.3,515.2 679.6,532.1 				"/>
				<g>
					<defs>
						<path id="SVGID_8_" d="M470.5,526.8c-15.2,0-27.5-13-27.1-28.9c0.4-15.3,12.9-27.3,27.7-27.3h208.5
							c-2.4,5.1-5.9,14.4-6.1,26.5c-0.3,13.8,3.7,24.3,6.1,29.7C609.9,526.8,540.2,526.8,470.5,526.8z"/>
					</defs>
					<clipPath id="SVGID_9_">
						<use xlink:href="#SVGID_8_"  style="overflow:visible;"/>
					</clipPath>
					<g class="st26">
						<rect x="440.8" y="479.1" class="st17" width="241.7" height="2.1"/>
						<rect x="440.8" y="489.1" class="st17" width="241.7" height="2.1"/>
						<rect x="440.8" y="499.1" class="st17" width="241.7" height="2.1"/>
						<rect x="440.8" y="509.1" class="st17" width="241.7" height="2.1"/>
						<rect x="440.8" y="519.1" class="st17" width="241.7" height="2.1"/>
					</g>
				</g>
				<g>
					<defs>
						<path id="SVGID_10_" d="M726.3,451.6v58.8l-46.6,16.4c-2.5-5.3-6.7-15.9-6.4-29.7c0.3-12.1,3.9-21.3,6.4-26.5
							C695.2,464.3,710.7,458,726.3,451.6z"/>
					</defs>
					<clipPath id="SVGID_11_">
						<use xlink:href="#SVGID_10_"  style="overflow:visible;"/>
					</clipPath>
					
						<rect x="667.5" y="468.5" transform="matrix(0.9302 -0.3671 0.3671 0.9302 -123.2842 290.8693)" class="st27" width="70.8" height="2"/>
					
						<rect x="669.1" y="476.8" transform="matrix(0.9302 -0.3671 0.3671 0.9302 -126.2207 292.0255)" class="st27" width="70.8" height="2"/>
					
						<rect x="669.1" y="486.6" transform="matrix(0.9302 -0.3671 0.3671 0.9302 -129.812 292.7086)" class="st27" width="70.8" height="2"/>
					
						<rect x="671.2" y="496.6" transform="matrix(0.9302 -0.3671 0.3671 0.9302 -133.3676 294.1683)" class="st27" width="70.8" height="2"/>
					
						<rect x="672.7" y="506" transform="matrix(0.9302 -0.3671 0.3671 0.9302 -136.7054 295.3998)" class="st27" width="70.8" height="2"/>
				</g>
				<path class="st24" d="M649.6,513l-9.2-5c-0.8-0.4-1.7-0.4-2.5,0l-9.2,5c-1.7,0.9-3.8-0.3-3.8-2.3v-29.1c0-1.4,1.2-2.6,2.6-2.6
					h23.3c1.4,0,2.6,1.2,2.6,2.6v29.1C653.4,512.7,651.3,514,649.6,513z"/>
				<polygon class="st25" points="679.8,465.4 726.5,448.4 726.5,453.7 679.8,470.7 				"/>
			</g>
		</g>
		<g>
			<path class="st13" d="M684.2,453.5h-85c-6.2,0-11.3-5.1-11.3-11.3V328.4c0-2.4,2-4.4,4.4-4.4h98.7c2.4,0,4.4,2,4.4,4.4v113.8
				C695.5,448.5,690.4,453.5,684.2,453.5z"/>
			<path class="st28" d="M686.1,441.8c1.8-22.3,53.6-28.9,49.7-69.3c-3.9-40.5-60-26-60-26"/>
		</g>
		<g>
			<g>
				<g>
					<g>
						<path class="st29" d="M147.8,616.8c0,0-8.5,6.7-3.2,11.5c5.3,4.7,8.4,4,15.2,10.8c6,5.9,19.6,0.5,12-5.9
							c-9.1-7.6-16.1-11.6-16.1-11.6S149.4,623.1,147.8,616.8z"/>
						<path class="st30" d="M163.1,626.4l-7.3-5.3l-0.3-0.2l2.7-12.5l-7.5-2.9l-3,11.4c-0.7,1.3-4.3,8.8,6.8,12.9
							C168.1,634.9,163.1,626.4,163.1,626.4z"/>
					</g>
					<path class="st24" d="M153.9,452.8c0,0,36.8,68.8,28.3,90.6c-8.5,21.8-24.7,69.6-24.7,69.6l-9.4-1.2c0,0,5.1-27.8,16.6-72
						c0,0-27.5-62.5-32.7-63C121,475.8,126.4,440.7,153.9,452.8z"/>
				</g>
				<g>
					<g>
						<g>
							<g>
								<polygon class="st30" points="122.6,614.2 120.7,618.9 117.7,631.1 124.9,638.1 132,632.3 132,618.9 129.2,611.7 								
									"/>
							</g>
							
								<rect x="122.6" y="607.2" transform="matrix(-1 -1.224647e-16 1.224647e-16 -1 252.426 1223.8558)" class="st30" width="7.2" height="9.5"/>
						</g>
						<path class="st24" d="M118.5,452.3c0,0-14.8,27.1-9.9,41.3c4.9,14.1,13.3,119.4,13.3,119.4h8.5l7.1-123.6l-0.7-36.8
							L118.5,452.3z"/>
					</g>
					<path class="st29" d="M120.7,618.9c0,0-7.2,22.3,3.7,24.2c11,1.9,7.7-24.2,7.7-24.2s0.9,13.1-7,13.5
						C116.6,632.9,120.7,618.9,120.7,618.9z"/>
				</g>
			</g>
			<g>
				<path class="st13" d="M134.7,343.6c-1-5.3-7.7-7-11.2-2.9c-7,8.5-20.5,19.7-42.4,18.2c-35.1-2.4-63.2,43.4-26.7,61.2
					c0,0-7.8,33.2,29,26.9C115.5,441.7,141.1,376.3,134.7,343.6z"/>
				<g>
					<g>
						<path class="st31" d="M148.6,383.3c0,0,16,8.2,24.1,39.4l27-19.7l5,6.6l-29.5,24c-1.4,1.2-3.5,1-4.8-0.3
							c-7.4-7.8-30.1-32.7-31.2-45.9C138,371.7,148.6,383.3,148.6,383.3z"/>
						<path class="st32" d="M175.3,430.7c-1.4,1.2-3.5,1-4.8-0.3c-7.4-7.8-30.1-32.7-31.2-45.9c0-0.3,0-0.6-0.1-0.9
							c-0.1,1-0.1,2.3,0.1,3.8c1.1,13.2,23.8,38.1,31.2,45.9c1.3,1.3,3.4,1.5,4.8,0.3l29.5-24l-1.3-1.8L175.3,430.7z"/>
					</g>
					<path class="st31" d="M196.6,405.3c0,0,5.6-1.4,6.1,1.5c0.5,2.9-6.1,1.2-6.1,1.2V405.3z"/>
				</g>
				<path class="st13" d="M153.3,361.2c0,0,6.7,42.6-22.1,28.4c-7.8-3.8,12.2-39,21.8-27.5"/>
				<path class="st8" d="M147.5,381.3c0,0,21.9,23.9,12.7,33.2c-9.2,9.2-11.7,27.5-4.2,42.9c0,0-19.6,19.1-39.5,3.3
					c-2.2-1.7-2.9-4.7-1.7-7.2c3.3-7.3,9.3-23.3,4.7-36.7c-8.1-23.7-0.5-27.5,8.7-34.8C137.4,374.7,147.5,381.3,147.5,381.3z"/>
				<g>
					<g>
						<g>
							<g>
								<g>
									<path class="st33" d="M129.6,356.3c0.2-2.2-1-4.3-3.1-5c-1.4-0.4-2.8-0.2-3.6,2.1c-1.4,4.1-0.5,9.3,2.5,10.3
										c1.4,0.5,2.8-0.4,3.2-1.7C128.9,360.8,129.4,358.9,129.6,356.3z"/>
								</g>
							</g>
						</g>
					</g>
					<path class="st34" d="M127,347.2c0,0,5.3,18.7,1.1,35c0,0,26.6,16,18.9,4.9c0,0-8.8-8.3,2.4-28.6L127,347.2z"/>
					<path class="st33" d="M159,357.2c-4,10-8.3,22.6-17.4,19.4c-16.6-5.7-18-21.1-14.9-30.2c3.2-9.2,13.1-14,22.3-10.9
						C158.1,338.7,162.5,348.2,159,357.2z"/>
					<path class="st13" d="M120.6,346.3c0,0,1.9-18.2,17-16c0,0,24.9-14.7,26,8.2c1.1,23.4-20.7,6.6-20.7,6.6s1.6,9.8-10.3,5.5
						c0,0-5.7,10.2-9.4,6C119.5,352.4,110.2,355.9,120.6,346.3z"/>
				</g>
				<g>
					<path class="st35" d="M140.4,473.1c1.6-0.8,3.8-2.2,3.8-3.6c0-1.9-7.6-0.7-10.2-0.2l-19.3-35.7l13.6-26.4
						c1.9-4.9,2.3-10.3,0.7-15.3c-1.3-4.3-3.8-7.6-8.4-3.8c-8.8,7.4-14.2,29.2-17.1,43.4c-0.2,1.1,0,2.3,0.6,3.3l26.6,42.3
						c3.1,6.1,11.7,14.8,14.6,7.6C147.2,479.6,143.9,475.7,140.4,473.1z"/>
					<g>
						<path class="st36" d="M137.3,469.3c1.2-0.2,3.4-0.6,5.5-0.8c-1.5-0.2-3.7,0-5.7,0.3L137.3,469.3z"/>
						<path class="st36" d="M133.9,477l-26.6-42.3c-0.6-1-0.8-2.2-0.6-3.3c2.9-14.2,8.4-36,17.1-43.4c0.7-0.6,1.3-1,1.9-1.3
							c-1.3-0.8-3-0.6-5.2,1.3c-8.8,7.4-14.2,29.2-17.1,43.4c-0.2,1.1,0,2.3,0.6,3.3l26.6,42.3c2.6,5.1,9,12,12.7,10
							C139.9,485.6,135.9,480.8,133.9,477z"/>
					</g>
				</g>
			</g>
		</g>
		<g>
			
				<rect x="167.5" y="308.9" transform="matrix(-0.7106 -0.7036 0.7036 -0.7106 7.58 883.038)" class="st9" width="35.9" height="262.1"/>
			
				<rect x="178" y="309.5" transform="matrix(-0.7106 -0.7036 0.7036 -0.7106 8.1572 884.4022)" class="st10" width="15.9" height="262.1"/>
			<polygon class="st8" points="264.8,334.2 290.3,359.5 298.5,332.3 291.9,325.8 			"/>
			<polygon class="st10" points="291.9,325.8 298.5,332.3 301.3,322.9 			"/>
			<path class="st10" d="M84.7,516.2l25.5,25.2l-9.7,9.8c-2,2-5.3,2.1-7.4,0L75,533.4c-2-2-2.1-5.3,0-7.4L84.7,516.2z"/>
		</g>
		<g>
			<g>
				<path class="st37" d="M316.2,599.5h-64c-3.9,0-7-3.1-7-7v-42.9c0-3.9,3.1-7,7-7h64V599.5z"/>
				<g>
					<rect x="252.1" y="553" class="st38" width="16.5" height="12.9"/>
					<rect x="252.1" y="573.6" class="st38" width="16.5" height="12.9"/>
				</g>
			</g>
			<g>
				<path class="st39" d="M435.9,608.4H291c-1.6,0-3-1.3-3-3v-67.6c0-1.6,1.3-3,3-3h144.9c9.8,0,17.7,7.9,17.7,17.7v38.1
					C453.6,600.5,445.7,608.4,435.9,608.4z"/>
				
					<ellipse transform="matrix(0.7071 -0.7071 0.7071 0.7071 -280.6201 465.8824)" class="st40" cx="422.1" cy="571.7" rx="15.7" ry="15.7"/>
			</g>
		</g>
		<g>
			
				<ellipse transform="matrix(0.2266 -0.974 0.974 0.2266 217.1102 412.8719)" class="st2" cx="368.5" cy="69.7" rx="63.5" ry="63.5"/>
			
				<ellipse transform="matrix(0.1588 -0.9873 0.9873 0.1588 241.1664 422.5084)" class="st5" cx="368.5" cy="69.7" rx="55.2" ry="55.2"/>
			<path class="st41" d="M369.7,30.6h-2.1c-0.5,0-1-0.4-1-1V19.1c0-0.5,0.4-1,1-1h2.1c0.5,0,1,0.4,1,1v10.5
				C370.7,30.2,370.2,30.6,369.7,30.6z"/>
			<path class="st41" d="M408.3,73v-2.1c0-0.5,0.4-1,1-1h10.5c0.5,0,1,0.4,1,1V73c0,0.5-0.4,1-1,1h-10.5
				C408.7,73.9,408.3,73.5,408.3,73z"/>
			<path class="st41" d="M316.8,73v-2.1c0-0.5,0.4-1,1-1h10.5c0.5,0,1,0.4,1,1V73c0,0.5-0.4,1-1,1h-10.5
				C317.3,73.9,316.8,73.5,316.8,73z"/>
			<path class="st41" d="M389.7,37.9l-1.7-1.2c-0.4-0.3-0.5-0.9-0.2-1.3l6.2-8.5c0.3-0.4,0.9-0.5,1.3-0.2l1.7,1.2
				c0.4,0.3,0.5,0.9,0.2,1.3l-6.2,8.5C390.7,38.1,390.1,38.2,389.7,37.9z"/>
			<path class="st41" d="M404.4,53l-0.9-1.9c-0.2-0.5,0-1,0.5-1.3l9.6-4.4c0.5-0.2,1,0,1.3,0.5l0.9,1.9c0.2,0.5,0,1-0.5,1.3
				l-9.6,4.4C405.2,53.7,404.6,53.5,404.4,53z"/>
			<path class="st41" d="M346.4,36.2l1.7-1.2c0.4-0.3,0.5-0.9,0.2-1.3l-6.2-8.5c-0.3-0.4-0.9-0.5-1.3-0.2l-1.7,1.2
				c-0.4,0.3-0.5,0.9-0.2,1.3l6.2,8.5C345.4,36.4,346,36.5,346.4,36.2z"/>
			<path class="st41" d="M332.9,53l0.9-1.9c0.2-0.5,0-1-0.5-1.3l-9.6-4.4c-0.5-0.2-1,0-1.3,0.5l-0.9,1.9c-0.2,0.5,0,1,0.5,1.3
				l9.6,4.4C332.1,53.7,332.7,53.5,332.9,53z"/>
			<path class="st41" d="M367.6,108.9h2.1c0.5,0,1,0.4,1,1v10.5c0,0.5-0.4,1-1,1h-2.1c-0.5,0-1-0.4-1-1v-10.5
				C366.6,109.3,367,108.9,367.6,108.9z"/>
			<path class="st41" d="M348,103.2l1.7,1.2c0.4,0.3,0.5,0.9,0.2,1.3l-6.2,8.5c-0.3,0.4-0.9,0.5-1.3,0.2l-1.7-1.2
				c-0.4-0.3-0.5-0.9-0.2-1.3l6.2-8.5C346.9,103,347.5,102.9,348,103.2z"/>
			<path class="st41" d="M334.2,88l0.9,1.9c0.2,0.5,0,1-0.5,1.3l-9.6,4.4c-0.5,0.2-1,0-1.3-0.5l-0.9-1.9c-0.2-0.5,0-1,0.5-1.3
				l9.6-4.4C333.4,87.3,334,87.5,334.2,88z"/>
			<path class="st41" d="M389.3,103.2l-1.7,1.2c-0.4,0.3-0.5,0.9-0.2,1.3l6.2,8.5c0.3,0.4,0.9,0.5,1.3,0.2l1.7-1.2
				c0.4-0.3,0.5-0.9,0.2-1.3l-6.2-8.5C390.3,103,389.7,102.9,389.3,103.2z"/>
			<path class="st41" d="M403.1,88l-0.9,1.9c-0.2,0.5,0,1,0.5,1.3l9.6,4.4c0.5,0.2,1,0,1.3-0.5l0.9-1.9c0.2-0.5,0-1-0.5-1.3
				l-9.6-4.4C403.9,87.3,403.3,87.5,403.1,88z"/>
			<path class="st2" d="M366.1,69.3l-2.6-6.9c0-0.1-0.1-0.2,0-0.4l4.3-23.2c0.1-0.7,1.2-0.7,1.3,0l4.1,22.7c0,0.1,0,0.2,0,0.3
				l-2.5,7.4c-0.1,0.3-0.3,0.4-0.6,0.4h-3.3C366.4,69.7,366.2,69.6,366.1,69.3z"/>
			<path class="st2" d="M370.6,68.2l8.5,5.4c0.1,0.1,0.3,0.2,0.4,0.3l19,26.9c0.6,0.8-0.2,1.5-1,0.9L372.8,81
				c-0.1-0.1-0.2-0.2-0.3-0.4l-5.3-9.4c-0.2-0.3-0.2-0.7,0-0.9l2.4-2.2C369.9,68,370.3,68,370.6,68.2z"/>
			<path class="st41" d="M372,69.7c0,1.9-1.5,3.4-3.4,3.4c-1.9,0-3.4-1.5-3.4-3.4c0-1.9,1.5-3.4,3.4-3.4
				C370.4,66.3,372,67.8,372,69.7z"/>
		</g>
		<g class="st42">
			<rect x="71.4" y="190.2" class="st24" width="63.9" height="46.6"/>
			<polygon class="st43" points="71.4,190.2 103.4,222.5 135.3,190.2 			"/>
			<polygon class="st44" points="71.4,236.8 97.1,216.2 103.4,222.5 110.5,215.3 135.3,236.8 			"/>
		</g>
		<path class="st45" d="M101.1,327.9H33.3c-1.3,0-2.3-1-2.3-2.3v-93c0-1.3,1-2.3,2.3-2.3h67.8c1.3,0,2.3,1,2.3,2.3v93
			C103.4,326.9,102.4,327.9,101.1,327.9z"/>
		<g>
			<path class="st14" d="M96.4,253.2H38c-0.4,0-0.7-0.3-0.7-0.7V251c0-0.4,0.3-0.7,0.7-0.7h58.4c0.4,0,0.7,0.3,0.7,0.7v1.5
				C97.1,252.9,96.8,253.2,96.4,253.2z"/>
			<path class="st14" d="M96.4,260.4H38c-0.4,0-0.7-0.3-0.7-0.7v-1.5c0-0.4,0.3-0.7,0.7-0.7h58.4c0.4,0,0.7,0.3,0.7,0.7v1.5
				C97.1,260.1,96.8,260.4,96.4,260.4z"/>
			<path class="st14" d="M96.4,267.6H38c-0.4,0-0.7-0.3-0.7-0.7v-1.5c0-0.4,0.3-0.7,0.7-0.7h58.4c0.4,0,0.7,0.3,0.7,0.7v1.5
				C97.1,267.3,96.8,267.6,96.4,267.6z"/>
			<path class="st14" d="M96.4,274.8H38c-0.4,0-0.7-0.3-0.7-0.7v-1.5c0-0.4,0.3-0.7,0.7-0.7h58.4c0.4,0,0.7,0.3,0.7,0.7v1.5
				C97.1,274.5,96.8,274.8,96.4,274.8z"/>
			<path class="st14" d="M96.4,282.1H38c-0.4,0-0.7-0.3-0.7-0.7v-1.5c0-0.4,0.3-0.7,0.7-0.7h58.4c0.4,0,0.7,0.3,0.7,0.7v1.5
				C97.1,281.7,96.8,282.1,96.4,282.1z"/>
			<path class="st14" d="M96.4,289.3H38c-0.4,0-0.7-0.3-0.7-0.7v-1.5c0-0.4,0.3-0.7,0.7-0.7h58.4c0.4,0,0.7,0.3,0.7,0.7v1.5
				C97.1,289,96.8,289.3,96.4,289.3z"/>
			<path class="st14" d="M96.4,296.5H38c-0.4,0-0.7-0.3-0.7-0.7v-1.5c0-0.4,0.3-0.7,0.7-0.7h58.4c0.4,0,0.7,0.3,0.7,0.7v1.5
				C97.1,296.2,96.8,296.5,96.4,296.5z"/>
			<path class="st14" d="M96.4,303.7H38c-0.4,0-0.7-0.3-0.7-0.7v-1.5c0-0.4,0.3-0.7,0.7-0.7h58.4c0.4,0,0.7,0.3,0.7,0.7v1.5
				C97.1,303.4,96.8,303.7,96.4,303.7z"/>
		</g>
		<polyline class="st46" points="75,318.8 81.9,323.5 95.6,307.8 		"/>
		<g class="st47">
			<rect x="641.7" y="145.6" class="st24" width="63.9" height="46.6"/>
			<polygon class="st43" points="641.7,145.6 673.6,178 705.6,145.6 			"/>
			<polygon class="st44" points="641.7,192.3 667.4,171.7 673.6,178 680.7,170.8 705.6,192.3 			"/>
		</g>
		<path class="st45" d="M671.4,283.4h-67.8c-1.3,0-2.3-1-2.3-2.3v-93c0-1.3,1-2.3,2.3-2.3h67.8c1.3,0,2.3,1,2.3,2.3v93
			C673.6,282.4,672.6,283.4,671.4,283.4z"/>
		<g>
			<path class="st14" d="M666.7,208.7h-58.4c-0.4,0-0.7-0.3-0.7-0.7v-1.5c0-0.4,0.3-0.7,0.7-0.7h58.4c0.4,0,0.7,0.3,0.7,0.7v1.5
				C667.4,208.4,667.1,208.7,666.7,208.7z"/>
			<path class="st14" d="M666.7,215.9h-58.4c-0.4,0-0.7-0.3-0.7-0.7v-1.5c0-0.4,0.3-0.7,0.7-0.7h58.4c0.4,0,0.7,0.3,0.7,0.7v1.5
				C667.4,215.6,667.1,215.9,666.7,215.9z"/>
			<path class="st14" d="M666.7,223.1h-58.4c-0.4,0-0.7-0.3-0.7-0.7v-1.5c0-0.4,0.3-0.7,0.7-0.7h58.4c0.4,0,0.7,0.3,0.7,0.7v1.5
				C667.4,222.8,667.1,223.1,666.7,223.1z"/>
			<path class="st14" d="M666.7,230.3h-58.4c-0.4,0-0.7-0.3-0.7-0.7v-1.5c0-0.4,0.3-0.7,0.7-0.7h58.4c0.4,0,0.7,0.3,0.7,0.7v1.5
				C667.4,230,667.1,230.3,666.7,230.3z"/>
			<path class="st14" d="M666.7,237.5h-58.4c-0.4,0-0.7-0.3-0.7-0.7v-1.5c0-0.4,0.3-0.7,0.7-0.7h58.4c0.4,0,0.7,0.3,0.7,0.7v1.5
				C667.4,237.2,667.1,237.5,666.7,237.5z"/>
			<path class="st14" d="M666.7,244.7h-58.4c-0.4,0-0.7-0.3-0.7-0.7v-1.5c0-0.4,0.3-0.7,0.7-0.7h58.4c0.4,0,0.7,0.3,0.7,0.7v1.5
				C667.4,244.4,667.1,244.7,666.7,244.7z"/>
			<path class="st14" d="M666.7,252h-58.4c-0.4,0-0.7-0.3-0.7-0.7v-1.5c0-0.4,0.3-0.7,0.7-0.7h58.4c0.4,0,0.7,0.3,0.7,0.7v1.5
				C667.4,251.7,667.1,252,666.7,252z"/>
			<path class="st14" d="M666.7,259.2h-58.4c-0.4,0-0.7-0.3-0.7-0.7V257c0-0.4,0.3-0.7,0.7-0.7h58.4c0.4,0,0.7,0.3,0.7,0.7v1.5
				C667.4,258.9,667.1,259.2,666.7,259.2z"/>
		</g>
		<line class="st48" x1="654.3" y1="266.1" x2="666.2" y2="278.8"/>
		<line class="st48" x1="666.6" y1="266.5" x2="653.9" y2="278.4"/>
		<g class="st49">
			<path class="st24" d="M544.1,137.8c-3.6,1.2-6.4-3.1-3.9-5.9c20.1-21.8,60.9-59.8,74.3-26.6C628.6,140.1,582,125.1,544.1,137.8z"
				/>
			<path class="st24" d="M510.8,116.6c1.1,5.3,8.4,5.8,10.3,0.7c10.5-28.6,22.4-74.6-10.9-72.3C474.6,47.5,503.4,79.4,510.8,116.6z"
				/>
			<path class="st24" d="M539.6,104.6c2.1,1.2,9.5-67.1,27.8-54.5C585.7,62.9,539.6,104.6,539.6,104.6z"/>
		</g>
		<g class="st49">
			<path class="st8" d="M193.9,131.7c-0.2,2.4-3.5,3-4.4,0.8c-7.8-17.3-20-51,3-50.5C216.6,82.4,196,106.1,193.9,131.7z"/>
			<path class="st8" d="M173.1,146c3.4,0.7,5.5-3.5,3-5.9c-14.2-13.4-38.4-32-45.4-11.8C123.2,149.9,149.3,141,173.1,146z"/>
			<path class="st8" d="M173.3,126c1.2-1-37.2-22.5-25.1-30.1C160.2,88.3,173.3,126,173.3,126z"/>
		</g>
		<g>
			<g>
				<path class="st29" d="M489.2,453.4c1.1,2.6,0.6,4.4-10.7,4.7c-8.7,0.2-13.8-1.2-13.8-4c0-2.8,5.7-3.2,14.4-3.2
					C487.7,450.9,487.8,450.1,489.2,453.4z"/>
				<path class="st29" d="M508.1,461.5c0,3.6-4.9,6-15.2,6c-10.4,0-17.8-2-17.8-5.6c0-3.6,7.1-5.6,17.5-5.6
					C503,456.2,508.1,457.9,508.1,461.5z"/>
				<path class="st50" d="M513.7,461.8c0,2.2-5.4,4-12.1,4c-6.7,0-12.1-1.8-12.1-4c0-2.2,5.4-4,12.1-4
					C508.3,457.8,513.7,459.6,513.7,461.8z"/>
				<path class="st51" d="M506.4,401.7c-9.8,3.4-22.9,49.3-23.1,49.3l4.4,0.3l22.6-34.1c0,0,30.1,30.2,46.8,38.9
					c7.4,3.8,17.4,1.5,20.5-6.4c6.1-15.4-10.6-26.6-22.3-32.1C542.9,411.6,509.7,400.6,506.4,401.7z"/>
				<path class="st52" d="M580.6,438.1c-9.9-13.5-10.3-14.4-22.2-8.4c-23.2,11.8-51.6,22.2-58.3,26.4c0,0-13.1,6.9,0,12.3
					c10.7-0.2,41.5,0,68.2-6.6C583.7,458,585.7,445,580.6,438.1z"/>
				<path class="st53" d="M541.8,376.5c0,0-14.2,17.1-21.9,25.1l-16-20.5l-3,1.4c2.9,5.2,12.1,23,13.8,26.6c8,17,31.6-21.2,32.6-22
					L541.8,376.5z"/>
				<path class="st8" d="M541.7,435.6c-1.4,6.3,39.9,5.8,39,2.4c-3.6-13-6-46.3-7.6-53.3c-3.8-17-17-21.1-23.9-15.6
					c-11.6,9.2-17.3,22.7-10.3,30.6C548.6,410.8,544.3,423.7,541.7,435.6z"/>
				<path class="st34" d="M565.3,332.5c0,0-5.6,19.9-1.2,37.2c0,0-28.3,17-20.1,5.2c0,0,9.3-8.9-2.5-30.4L565.3,332.5z"/>
				<path class="st33" d="M531.2,343.1c4.2,10.6,8.8,24,18.5,20.7c17.7-6.1,19.2-22.4,15.8-32.2c-3.4-9.7-14-14.9-23.7-11.6
					C532.2,323.3,527.4,333.5,531.2,343.1z"/>
				<line class="st54" x1="496.5" y1="367.4" x2="502.3" y2="388.2"/>
				<path class="st33" d="M496.7,377c0.1,0.1,0.4,0.2,0.6,0.8c0.1,0.3-0.3,0.8-0.2,1.1c0.2,0.6,0.8,0.4,0.8,1c0,0.4-0.5,0.3-0.3,1
					c0.4,1.3,10.2,4.9,9,1.6c-1.2-3.2-5.3-8.8-8.7-9.5c-1-0.2-1.4,0.2-1.6,1.2c-0.1,0.3,0.7,0.6,0.7,1.2
					C497.1,375.8,496.3,376.1,496.7,377z"/>
				<path class="st33" d="M505.9,381.4c0,0-0.3-5.1-1.6-7.2c0,0-2.1-3-2.5-2.9c0,0-1-0.1,0.6,2.6c0,0-0.7,2.1,1.3,5.5L505.9,381.4z"
					/>
				<path class="st50" d="M488.8,449.8l-4.8-0.5l-0.6,1.6c0,0-5.9-0.2-10.1,0.1c0,0-2.5,4.3,12.9,1.5
					C488.2,452.2,488.8,449.8,488.8,449.8z"/>
				<path class="st53" d="M565.3,396.3c-5.2,5-20,19-20.9,19.6c-3.9,2.7-5.4,2.3-8,0.7c-2.4-1.5-19.3-16.9-24.9-23.1
					c-0.7-0.7-8.2-9.4-7.7-9.9c0,0,2.5-2.2,2.5-2.2l32.3,22c2.5-2.4,5-4.8,7.4-7.2c4-4,8.1-7.9,12.2-11.8c2.6-2.5,5.6-5.3,9-3.4
					C573.2,384.4,569.9,391.8,565.3,396.3z"/>
				<path class="st33" d="M552.4,338.8c0,2.5,2,8,4.5,8c4.5,0,4.5-5.5,4.5-8c0-2.5-2-4.5-4.5-4.5
					C554.4,334.2,552.4,336.3,552.4,338.8z"/>
				<path class="st52" d="M534.4,324.9c0,0-6.5-1.3-4.5,9.4C529.9,334.2,530.8,330.6,534.4,324.9z"/>
			</g>
			<path class="st52" d="M532,328.3c0,0,4,19.6,21.4,12.2c0,0-1.9-7.9,5.7-6.3c0,0,5.9,2.9,1.1,12.6c-4.9,9.7-0.9,16.5-0.9,16.5
				s-22,8-17.8,31.7c4.3,23.7,49.4,31.1,55.9,7.5c8.6-31.3-13.3-38.3-13.3-38.3s3.7-46-29-49.5C529.5,312,532,328.3,532,328.3z"/>
		</g>
	</g>
</g>
</svg>
